%TF.GenerationSoftware,KiCad,Pcbnew,(6.0.7-1)-1*%
%TF.CreationDate,2022-10-05T21:39:38-05:00*%
%TF.ProjectId,KiCad,4b694361-642e-46b6-9963-61645f706362,rev?*%
%TF.SameCoordinates,Original*%
%TF.FileFunction,Copper,L1,Top*%
%TF.FilePolarity,Positive*%
%FSLAX46Y46*%
G04 Gerber Fmt 4.6, Leading zero omitted, Abs format (unit mm)*
G04 Created by KiCad (PCBNEW (6.0.7-1)-1) date 2022-10-05 21:39:38*
%MOMM*%
%LPD*%
G01*
G04 APERTURE LIST*
G04 Aperture macros list*
%AMRoundRect*
0 Rectangle with rounded corners*
0 $1 Rounding radius*
0 $2 $3 $4 $5 $6 $7 $8 $9 X,Y pos of 4 corners*
0 Add a 4 corners polygon primitive as box body*
4,1,4,$2,$3,$4,$5,$6,$7,$8,$9,$2,$3,0*
0 Add four circle primitives for the rounded corners*
1,1,$1+$1,$2,$3*
1,1,$1+$1,$4,$5*
1,1,$1+$1,$6,$7*
1,1,$1+$1,$8,$9*
0 Add four rect primitives between the rounded corners*
20,1,$1+$1,$2,$3,$4,$5,0*
20,1,$1+$1,$4,$5,$6,$7,0*
20,1,$1+$1,$6,$7,$8,$9,0*
20,1,$1+$1,$8,$9,$2,$3,0*%
G04 Aperture macros list end*
%TA.AperFunction,SMDPad,CuDef*%
%ADD10R,1.500000X2.000000*%
%TD*%
%TA.AperFunction,SMDPad,CuDef*%
%ADD11R,3.800000X2.000000*%
%TD*%
%TA.AperFunction,ComponentPad*%
%ADD12O,1.350000X1.350000*%
%TD*%
%TA.AperFunction,ComponentPad*%
%ADD13R,1.350000X1.350000*%
%TD*%
%TA.AperFunction,SMDPad,CuDef*%
%ADD14R,1.500000X0.700000*%
%TD*%
%TA.AperFunction,SMDPad,CuDef*%
%ADD15R,0.800000X1.000000*%
%TD*%
%TA.AperFunction,SMDPad,CuDef*%
%ADD16R,1.800000X2.100000*%
%TD*%
%TA.AperFunction,SMDPad,CuDef*%
%ADD17RoundRect,0.075000X-0.662500X-0.075000X0.662500X-0.075000X0.662500X0.075000X-0.662500X0.075000X0*%
%TD*%
%TA.AperFunction,SMDPad,CuDef*%
%ADD18RoundRect,0.075000X-0.075000X-0.662500X0.075000X-0.662500X0.075000X0.662500X-0.075000X0.662500X0*%
%TD*%
%TA.AperFunction,SMDPad,CuDef*%
%ADD19RoundRect,0.135000X0.185000X-0.135000X0.185000X0.135000X-0.185000X0.135000X-0.185000X-0.135000X0*%
%TD*%
%TA.AperFunction,SMDPad,CuDef*%
%ADD20RoundRect,0.135000X-0.135000X-0.185000X0.135000X-0.185000X0.135000X0.185000X-0.135000X0.185000X0*%
%TD*%
%TA.AperFunction,SMDPad,CuDef*%
%ADD21RoundRect,0.135000X0.135000X0.185000X-0.135000X0.185000X-0.135000X-0.185000X0.135000X-0.185000X0*%
%TD*%
%TA.AperFunction,SMDPad,CuDef*%
%ADD22R,1.300000X0.450000*%
%TD*%
%TA.AperFunction,ComponentPad*%
%ADD23O,2.000000X1.450000*%
%TD*%
%TA.AperFunction,ComponentPad*%
%ADD24O,1.800000X1.150000*%
%TD*%
%TA.AperFunction,SMDPad,CuDef*%
%ADD25RoundRect,0.218750X-0.256250X0.218750X-0.256250X-0.218750X0.256250X-0.218750X0.256250X0.218750X0*%
%TD*%
%TA.AperFunction,SMDPad,CuDef*%
%ADD26RoundRect,0.140000X0.140000X0.170000X-0.140000X0.170000X-0.140000X-0.170000X0.140000X-0.170000X0*%
%TD*%
%TA.AperFunction,SMDPad,CuDef*%
%ADD27RoundRect,0.140000X0.170000X-0.140000X0.170000X0.140000X-0.170000X0.140000X-0.170000X-0.140000X0*%
%TD*%
%TA.AperFunction,SMDPad,CuDef*%
%ADD28RoundRect,0.140000X-0.140000X-0.170000X0.140000X-0.170000X0.140000X0.170000X-0.140000X0.170000X0*%
%TD*%
%TA.AperFunction,SMDPad,CuDef*%
%ADD29RoundRect,0.140000X-0.170000X0.140000X-0.170000X-0.140000X0.170000X-0.140000X0.170000X0.140000X0*%
%TD*%
%TA.AperFunction,SMDPad,CuDef*%
%ADD30RoundRect,0.225000X-0.225000X-0.250000X0.225000X-0.250000X0.225000X0.250000X-0.225000X0.250000X0*%
%TD*%
%TA.AperFunction,SMDPad,CuDef*%
%ADD31RoundRect,0.250000X0.475000X-0.250000X0.475000X0.250000X-0.475000X0.250000X-0.475000X-0.250000X0*%
%TD*%
%TA.AperFunction,SMDPad,CuDef*%
%ADD32RoundRect,0.250000X-0.250000X-0.475000X0.250000X-0.475000X0.250000X0.475000X-0.250000X0.475000X0*%
%TD*%
%TA.AperFunction,ViaPad*%
%ADD33C,0.700000*%
%TD*%
%TA.AperFunction,Conductor*%
%ADD34C,0.500000*%
%TD*%
%TA.AperFunction,Conductor*%
%ADD35C,0.300000*%
%TD*%
%TA.AperFunction,Conductor*%
%ADD36C,0.200000*%
%TD*%
%TA.AperFunction,Conductor*%
%ADD37C,0.250000*%
%TD*%
G04 APERTURE END LIST*
D10*
%TO.P,U1,1,GND*%
%TO.N,GND*%
X136300000Y-95000000D03*
D11*
%TO.P,U1,2,VO*%
%TO.N,+3.3V*%
X134000000Y-101300000D03*
D10*
X134000000Y-95000000D03*
%TO.P,U1,3,VI*%
%TO.N,VBUS*%
X131700000Y-95000000D03*
%TD*%
D12*
%TO.P,J3,4,Pin_4*%
%TO.N,GND*%
X127469200Y-72796400D03*
%TO.P,J3,3,Pin_3*%
%TO.N,/SWDCLK*%
X129469200Y-72796400D03*
%TO.P,J3,2,Pin_2*%
%TO.N,/SWDIO*%
X131469200Y-72796400D03*
D13*
%TO.P,J3,1,Pin_1*%
%TO.N,+3.3V*%
X133469200Y-72796400D03*
%TD*%
D14*
%TO.P,SW1,3,C*%
%TO.N,GND*%
X110032800Y-84378800D03*
%TO.P,SW1,2,B*%
%TO.N,/FW_BOOT0*%
X110032800Y-82878800D03*
%TO.P,SW1,1,A*%
%TO.N,+3.3V*%
X110032800Y-79878800D03*
D15*
%TO.P,SW1,*%
%TO.N,*%
X109382800Y-78478800D03*
X107172800Y-85778800D03*
X107172800Y-78478800D03*
X109382800Y-85778800D03*
%TD*%
D16*
%TO.P,Y1,4,4*%
%TO.N,GND*%
X115062000Y-85238000D03*
%TO.P,Y1,3,3*%
%TO.N,/HSE_OUT*%
X115062000Y-88138000D03*
%TO.P,Y1,2,2*%
%TO.N,GND*%
X112762000Y-88138000D03*
%TO.P,Y1,1,1*%
%TO.N,/HSE_IN*%
X112762000Y-85238000D03*
%TD*%
D17*
%TO.P,U2,1,VBAT*%
%TO.N,+3.3V*%
X120805500Y-86658000D03*
%TO.P,U2,2,PC13*%
%TO.N,unconnected-(U2-Pad2)*%
X120805500Y-87158000D03*
%TO.P,U2,3,PC14*%
%TO.N,unconnected-(U2-Pad3)*%
X120805500Y-87658000D03*
%TO.P,U2,4,PC15*%
%TO.N,unconnected-(U2-Pad4)*%
X120805500Y-88158000D03*
%TO.P,U2,5,PD0*%
%TO.N,/HSE_IN*%
X120805500Y-88658000D03*
%TO.P,U2,6,PD1*%
%TO.N,/HSE_OUT*%
X120805500Y-89158000D03*
%TO.P,U2,7,NRST*%
%TO.N,/NRST*%
X120805500Y-89658000D03*
%TO.P,U2,8,VSSA*%
%TO.N,GND*%
X120805500Y-90158000D03*
%TO.P,U2,9,VDDA*%
%TO.N,+3.3VA*%
X120805500Y-90658000D03*
%TO.P,U2,10,PA0*%
%TO.N,unconnected-(U2-Pad10)*%
X120805500Y-91158000D03*
%TO.P,U2,11,PA1*%
%TO.N,unconnected-(U2-Pad11)*%
X120805500Y-91658000D03*
%TO.P,U2,12,PA2*%
%TO.N,unconnected-(U2-Pad12)*%
X120805500Y-92158000D03*
D18*
%TO.P,U2,13,PA3*%
%TO.N,unconnected-(U2-Pad13)*%
X122218000Y-93570500D03*
%TO.P,U2,14,PA4*%
%TO.N,unconnected-(U2-Pad14)*%
X122718000Y-93570500D03*
%TO.P,U2,15,PA5*%
%TO.N,unconnected-(U2-Pad15)*%
X123218000Y-93570500D03*
%TO.P,U2,16,PA6*%
%TO.N,unconnected-(U2-Pad16)*%
X123718000Y-93570500D03*
%TO.P,U2,17,PA7*%
%TO.N,unconnected-(U2-Pad17)*%
X124218000Y-93570500D03*
%TO.P,U2,18,PB0*%
%TO.N,unconnected-(U2-Pad18)*%
X124718000Y-93570500D03*
%TO.P,U2,19,PB1*%
%TO.N,unconnected-(U2-Pad19)*%
X125218000Y-93570500D03*
%TO.P,U2,20,PB2*%
%TO.N,unconnected-(U2-Pad20)*%
X125718000Y-93570500D03*
%TO.P,U2,21,PB10*%
%TO.N,/I2C2_SCL*%
X126218000Y-93570500D03*
%TO.P,U2,22,PB11*%
%TO.N,/I2C2_SDA*%
X126718000Y-93570500D03*
%TO.P,U2,23,VSS*%
%TO.N,GND*%
X127218000Y-93570500D03*
%TO.P,U2,24,VDD*%
%TO.N,+3.3V*%
X127718000Y-93570500D03*
D17*
%TO.P,U2,25,PB12*%
%TO.N,unconnected-(U2-Pad25)*%
X129130500Y-92158000D03*
%TO.P,U2,26,PB13*%
%TO.N,unconnected-(U2-Pad26)*%
X129130500Y-91658000D03*
%TO.P,U2,27,PB14*%
%TO.N,unconnected-(U2-Pad27)*%
X129130500Y-91158000D03*
%TO.P,U2,28,PB15*%
%TO.N,unconnected-(U2-Pad28)*%
X129130500Y-90658000D03*
%TO.P,U2,29,PA8*%
%TO.N,unconnected-(U2-Pad29)*%
X129130500Y-90158000D03*
%TO.P,U2,30,PA9*%
%TO.N,unconnected-(U2-Pad30)*%
X129130500Y-89658000D03*
%TO.P,U2,31,PA10*%
%TO.N,unconnected-(U2-Pad31)*%
X129130500Y-89158000D03*
%TO.P,U2,32,PA11*%
%TO.N,/USB_D-*%
X129130500Y-88658000D03*
%TO.P,U2,33,PA12*%
%TO.N,/USB_D+*%
X129130500Y-88158000D03*
%TO.P,U2,34,PA13*%
%TO.N,/SWDIO*%
X129130500Y-87658000D03*
%TO.P,U2,35,VSS*%
%TO.N,GND*%
X129130500Y-87158000D03*
%TO.P,U2,36,VDD*%
%TO.N,+3.3V*%
X129130500Y-86658000D03*
D18*
%TO.P,U2,37,PA14*%
%TO.N,/SWDCLK*%
X127718000Y-85245500D03*
%TO.P,U2,38,PA15*%
%TO.N,unconnected-(U2-Pad38)*%
X127218000Y-85245500D03*
%TO.P,U2,39,PB3*%
%TO.N,unconnected-(U2-Pad39)*%
X126718000Y-85245500D03*
%TO.P,U2,40,PB4*%
%TO.N,unconnected-(U2-Pad40)*%
X126218000Y-85245500D03*
%TO.P,U2,41,PB5*%
%TO.N,unconnected-(U2-Pad41)*%
X125718000Y-85245500D03*
%TO.P,U2,42,PB6*%
%TO.N,/USART1_TX*%
X125218000Y-85245500D03*
%TO.P,U2,43,PB7*%
%TO.N,/USART1_RX*%
X124718000Y-85245500D03*
%TO.P,U2,44,BOOT0*%
%TO.N,/BOOT0*%
X124218000Y-85245500D03*
%TO.P,U2,45,PB8*%
%TO.N,unconnected-(U2-Pad45)*%
X123718000Y-85245500D03*
%TO.P,U2,46,PB9*%
%TO.N,unconnected-(U2-Pad46)*%
X123218000Y-85245500D03*
%TO.P,U2,47,VSS*%
%TO.N,GND*%
X122718000Y-85245500D03*
%TO.P,U2,48,VDD*%
%TO.N,+3.3V*%
X122218000Y-85245500D03*
%TD*%
D19*
%TO.P,R5,1*%
%TO.N,/USB_D+*%
X134366000Y-87884000D03*
%TO.P,R5,2*%
%TO.N,+3.3V*%
X134366000Y-86864000D03*
%TD*%
%TO.P,R4,1*%
%TO.N,/FW_BOOT0*%
X112014000Y-82046000D03*
%TO.P,R4,2*%
%TO.N,/BOOT0*%
X112014000Y-81026000D03*
%TD*%
D20*
%TO.P,R3,1*%
%TO.N,+3.3V*%
X125499400Y-97409000D03*
%TO.P,R3,2*%
%TO.N,/I2C2_SDA*%
X126519400Y-97409000D03*
%TD*%
D21*
%TO.P,R2,1*%
%TO.N,+3.3V*%
X124333000Y-97409000D03*
%TO.P,R2,2*%
%TO.N,/I2C2_SCL*%
X123313000Y-97409000D03*
%TD*%
D20*
%TO.P,R1,1*%
%TO.N,/Power_LED*%
X141526800Y-94945200D03*
%TO.P,R1,2*%
%TO.N,GND*%
X142546800Y-94945200D03*
%TD*%
D22*
%TO.P,J4,1,VBUS*%
%TO.N,VBUS*%
X139331000Y-89438000D03*
%TO.P,J4,2,D-*%
%TO.N,/USB_D-*%
X139331000Y-88788000D03*
%TO.P,J4,3,D+*%
%TO.N,/USB_D+*%
X139331000Y-88138000D03*
%TO.P,J4,4,ID*%
%TO.N,unconnected-(J4-Pad4)*%
X139331000Y-87488000D03*
%TO.P,J4,5,GND*%
%TO.N,GND*%
X139331000Y-86838000D03*
D23*
%TO.P,J4,6,Shield*%
%TO.N,unconnected-(J4-Pad6)*%
X139381000Y-91863000D03*
X139381000Y-84413000D03*
D24*
X143181000Y-92013000D03*
X143181000Y-84263000D03*
%TD*%
D13*
%TO.P,J2,1,Pin_1*%
%TO.N,+3.3V*%
X120460000Y-103378000D03*
D12*
%TO.P,J2,2,Pin_2*%
%TO.N,/I2C2_SCL*%
X122460000Y-103378000D03*
%TO.P,J2,3,Pin_3*%
%TO.N,/I2C2_SDA*%
X124460000Y-103378000D03*
%TO.P,J2,4,Pin_4*%
%TO.N,GND*%
X126460000Y-103378000D03*
%TD*%
%TO.P,J1,4,Pin_4*%
%TO.N,GND*%
X117869200Y-72796400D03*
%TO.P,J1,3,Pin_3*%
%TO.N,/USART1_RX*%
X119869200Y-72796400D03*
%TO.P,J1,2,Pin_2*%
%TO.N,/USART1_TX*%
X121869200Y-72796400D03*
D13*
%TO.P,J1,1,Pin_1*%
%TO.N,+3.3V*%
X123869200Y-72796400D03*
%TD*%
D25*
%TO.P,FB1,1*%
%TO.N,+3.3VA*%
X119352000Y-94208500D03*
%TO.P,FB1,2*%
%TO.N,+3.3V*%
X119352000Y-95783500D03*
%TD*%
%TO.P,D1,2,A*%
%TO.N,+3.3V*%
X141500000Y-98437500D03*
%TO.P,D1,1,K*%
%TO.N,/Power_LED*%
X141500000Y-96862500D03*
%TD*%
D26*
%TO.P,C13,2*%
%TO.N,GND*%
X116868000Y-95504000D03*
%TO.P,C13,1*%
%TO.N,+3.3V*%
X117828000Y-95504000D03*
%TD*%
%TO.P,C12,2*%
%TO.N,GND*%
X116840000Y-94183200D03*
%TO.P,C12,1*%
%TO.N,+3.3VA*%
X117800000Y-94183200D03*
%TD*%
D27*
%TO.P,C11,1*%
%TO.N,+3.3VA*%
X118872000Y-90932000D03*
%TO.P,C11,2*%
%TO.N,GND*%
X118872000Y-89972000D03*
%TD*%
D28*
%TO.P,C10,1*%
%TO.N,+3.3V*%
X121940000Y-83400000D03*
%TO.P,C10,2*%
%TO.N,GND*%
X122900000Y-83400000D03*
%TD*%
D27*
%TO.P,C9,1*%
%TO.N,/HSE_OUT*%
X117094000Y-89182000D03*
%TO.P,C9,2*%
%TO.N,GND*%
X117094000Y-88222000D03*
%TD*%
%TO.P,C8,1*%
%TO.N,+3.3V*%
X119126000Y-86431000D03*
%TO.P,C8,2*%
%TO.N,GND*%
X119126000Y-85471000D03*
%TD*%
D29*
%TO.P,C7,1*%
%TO.N,+3.3V*%
X131064000Y-86388000D03*
%TO.P,C7,2*%
%TO.N,GND*%
X131064000Y-87348000D03*
%TD*%
D26*
%TO.P,C6,1*%
%TO.N,+3.3V*%
X128115000Y-95631000D03*
%TO.P,C6,2*%
%TO.N,GND*%
X127155000Y-95631000D03*
%TD*%
D27*
%TO.P,C5,2*%
%TO.N,GND*%
X117094000Y-86162000D03*
%TO.P,C5,1*%
%TO.N,/HSE_IN*%
X117094000Y-87122000D03*
%TD*%
D28*
%TO.P,C4,2*%
%TO.N,GND*%
X123134000Y-95500000D03*
%TO.P,C4,1*%
%TO.N,/NRST*%
X122174000Y-95500000D03*
%TD*%
D30*
%TO.P,C3,2*%
%TO.N,GND*%
X123203000Y-81788000D03*
%TO.P,C3,1*%
%TO.N,+3.3V*%
X121653000Y-81788000D03*
%TD*%
D31*
%TO.P,C2,2*%
%TO.N,GND*%
X138684000Y-96144000D03*
%TO.P,C2,1*%
%TO.N,+3.3V*%
X138684000Y-98044000D03*
%TD*%
D32*
%TO.P,C1,1*%
%TO.N,VBUS*%
X133200000Y-92600000D03*
%TO.P,C1,2*%
%TO.N,GND*%
X135100000Y-92600000D03*
%TD*%
D33*
%TO.N,GND*%
X112725200Y-90068400D03*
X115062000Y-83566000D03*
X127203200Y-92354400D03*
%TO.N,+3.3V*%
X114604800Y-79857600D03*
X113334800Y-78587600D03*
X142595600Y-93929200D03*
X142798800Y-96062800D03*
%TO.N,GND*%
X143408400Y-94945200D03*
X116840000Y-93218000D03*
%TO.N,+3.3V*%
X121760500Y-99923600D03*
X123190000Y-99923600D03*
X125819900Y-98856800D03*
X127218900Y-98856800D03*
%TO.N,GND*%
X139827000Y-96139000D03*
X136779000Y-96393000D03*
X135890000Y-96393000D03*
X136271000Y-93218000D03*
X136271000Y-92329000D03*
X122809000Y-86614000D03*
X122174000Y-90357500D03*
X116840000Y-96520000D03*
X110617000Y-85471000D03*
X117983000Y-86233000D03*
X117983000Y-88265000D03*
X119126000Y-84455000D03*
X131953000Y-87376000D03*
X138176000Y-86868000D03*
X124206000Y-95123000D03*
%TD*%
D34*
%TO.N,+3.3VA*%
X119352000Y-94208500D02*
X118821200Y-93677700D01*
X118821200Y-93677700D02*
X118821200Y-90982800D01*
X118821200Y-90982800D02*
X118872000Y-90932000D01*
X119352000Y-94208500D02*
X119326700Y-94183200D01*
X117800000Y-94183200D02*
X119326700Y-94183200D01*
D35*
X119755600Y-90658000D02*
X119481600Y-90932000D01*
X120805500Y-90658000D02*
X119755600Y-90658000D01*
X119481600Y-90932000D02*
X118872000Y-90932000D01*
%TO.N,GND*%
X110617000Y-85471000D02*
X110642400Y-85496400D01*
X110642400Y-85496400D02*
X110642400Y-84988400D01*
X110642400Y-84988400D02*
X110032800Y-84378800D01*
X112725200Y-88087200D02*
X112725200Y-90068400D01*
X112762000Y-88138000D02*
X112762000Y-88124000D01*
X112762000Y-88124000D02*
X112725200Y-88087200D01*
X117094000Y-86162000D02*
X117912000Y-86162000D01*
X117912000Y-86162000D02*
X117983000Y-86233000D01*
X115062000Y-85238000D02*
X115062000Y-83566000D01*
%TO.N,/SWDIO*%
X131470400Y-82979559D02*
X131469200Y-82978359D01*
X131469200Y-82978359D02*
X131469200Y-72796400D01*
%TO.N,GND*%
X127218000Y-92369200D02*
X127203200Y-92354400D01*
X127218000Y-93570500D02*
X127218000Y-92369200D01*
%TO.N,/USART1_TX*%
X125218000Y-85245500D02*
X125218000Y-83697000D01*
X121869200Y-74015600D02*
X121869200Y-72796400D01*
X125218000Y-83697000D02*
X126492000Y-82423000D01*
X126492000Y-82423000D02*
X126492000Y-78638400D01*
X126492000Y-78638400D02*
X121869200Y-74015600D01*
%TO.N,/USART1_RX*%
X124718000Y-85245500D02*
X124718000Y-82927000D01*
X124718000Y-82927000D02*
X125323600Y-82321400D01*
X125323600Y-82321400D02*
X125323600Y-79146400D01*
X125323600Y-79146400D02*
X119869200Y-73692000D01*
X119869200Y-73692000D02*
X119869200Y-72796400D01*
D34*
%TO.N,+3.3V*%
X123869200Y-72796400D02*
X123869200Y-72358000D01*
X123869200Y-72358000D02*
X122732800Y-71221600D01*
X122732800Y-71221600D02*
X115874800Y-71221600D01*
X115874800Y-71221600D02*
X112674400Y-74422000D01*
X112674400Y-74422000D02*
X112674400Y-74574400D01*
X133469200Y-72796400D02*
X133469200Y-72102800D01*
X133469200Y-72102800D02*
X132588000Y-71221600D01*
X132588000Y-71221600D02*
X125374400Y-71221600D01*
X125374400Y-71221600D02*
X123869200Y-72726800D01*
X123869200Y-72726800D02*
X123869200Y-72796400D01*
X133469200Y-74592000D02*
X133469200Y-72796400D01*
X136956800Y-78079600D02*
X133469200Y-74592000D01*
X141376400Y-82499200D02*
X141376400Y-84785200D01*
X137058400Y-78232000D02*
X137109200Y-78232000D01*
X137109200Y-78232000D02*
X141376400Y-82499200D01*
X134366000Y-80924400D02*
X137058400Y-78232000D01*
X134366000Y-86864000D02*
X134366000Y-80924400D01*
X141376400Y-84785200D02*
X141782800Y-85191600D01*
X141782800Y-85191600D02*
X141782800Y-91084400D01*
X141782800Y-91084400D02*
X141427200Y-91440000D01*
X141427200Y-91440000D02*
X141427200Y-93268800D01*
X141427200Y-93268800D02*
X142087600Y-93929200D01*
X142087600Y-93929200D02*
X142595600Y-93929200D01*
D35*
%TO.N,/SWDIO*%
X129130500Y-87658000D02*
X128171000Y-87658000D01*
X128171000Y-87658000D02*
X127762000Y-87249000D01*
X127762000Y-87249000D02*
X127762000Y-86687959D01*
X127762000Y-86687959D02*
X131470400Y-82979559D01*
%TO.N,/SWDCLK*%
X129469200Y-82468400D02*
X127718000Y-84219600D01*
X127718000Y-85245500D02*
X127718000Y-84219600D01*
%TO.N,/USART1_RX*%
X119869200Y-73717400D02*
X119869200Y-72796400D01*
D34*
%TO.N,+3.3V*%
X120497600Y-81788000D02*
X121653000Y-81788000D01*
X120497600Y-81788000D02*
X120497600Y-86350100D01*
X119888000Y-81788000D02*
X120497600Y-81788000D01*
X120497600Y-86350100D02*
X120705500Y-86558000D01*
X120705500Y-86558000D02*
X120805500Y-86558000D01*
X114604800Y-79857600D02*
X117957600Y-79857600D01*
X117957600Y-79857600D02*
X119888000Y-81788000D01*
X113334800Y-78536800D02*
X113334800Y-78587600D01*
X112674400Y-77876400D02*
X113334800Y-78536800D01*
X112674400Y-74523600D02*
X112674400Y-77876400D01*
X110672000Y-79878800D02*
X110032800Y-79878800D01*
X112674400Y-77876400D02*
X110672000Y-79878800D01*
X131064000Y-86388000D02*
X133890000Y-86388000D01*
X133890000Y-86388000D02*
X134366000Y-86864000D01*
X141500000Y-98437500D02*
X142202100Y-98437500D01*
X142202100Y-98437500D02*
X142798800Y-97840800D01*
X142798800Y-97840800D02*
X142798800Y-96062800D01*
D35*
%TO.N,GND*%
X142546800Y-94945200D02*
X143408400Y-94945200D01*
%TO.N,/Power_LED*%
X141500000Y-96862500D02*
X141500000Y-95149600D01*
X141500000Y-95149600D02*
X141550000Y-95099600D01*
%TO.N,GND*%
X116840000Y-94183200D02*
X116840000Y-93218000D01*
D34*
%TO.N,+3.3V*%
X117828000Y-95504000D02*
X119072500Y-95504000D01*
X119072500Y-95504000D02*
X119352000Y-95783500D01*
X119532400Y-99923600D02*
X119532400Y-95963900D01*
X119532400Y-95963900D02*
X119352000Y-95783500D01*
X121760500Y-99923600D02*
X120599200Y-99923600D01*
X120599200Y-99923600D02*
X119532400Y-99923600D01*
X120460000Y-103378000D02*
X120460000Y-100062800D01*
X120460000Y-100062800D02*
X120599200Y-99923600D01*
X124333000Y-98780600D02*
X123190000Y-99923600D01*
X124333000Y-97409000D02*
X124333000Y-98780600D01*
X125499400Y-97409000D02*
X124333000Y-97409000D01*
X125819900Y-98856800D02*
X125819900Y-98591100D01*
X125819900Y-98591100D02*
X125499400Y-98270600D01*
X125499400Y-98270600D02*
X125499400Y-97409000D01*
X128905000Y-102539800D02*
X128905000Y-98831400D01*
X127244300Y-98831400D02*
X127218900Y-98856800D01*
X128905000Y-98831400D02*
X128905000Y-96421000D01*
X128905000Y-98831400D02*
X127244300Y-98831400D01*
X140208000Y-98298000D02*
X140208000Y-99949000D01*
X130403600Y-104038400D02*
X128905000Y-102539800D01*
X139192000Y-100965000D02*
X139192000Y-102666800D01*
X139192000Y-102666800D02*
X137820400Y-104038400D01*
X140208000Y-99949000D02*
X139192000Y-100965000D01*
X137820400Y-104038400D02*
X130403600Y-104038400D01*
X128905000Y-96421000D02*
X128115000Y-95631000D01*
X138938000Y-98298000D02*
X140208000Y-98298000D01*
X140208000Y-98298000D02*
X141360500Y-98298000D01*
X138684000Y-98044000D02*
X138938000Y-98298000D01*
X141360500Y-98298000D02*
X141500000Y-98437500D01*
D35*
%TO.N,GND*%
X122718000Y-86523000D02*
X122809000Y-86614000D01*
X122718000Y-85245500D02*
X122718000Y-86523000D01*
X121974500Y-90158000D02*
X122174000Y-90357500D01*
X120805500Y-90158000D02*
X121974500Y-90158000D01*
X116868000Y-96492000D02*
X116840000Y-96520000D01*
X116868000Y-95504000D02*
X116868000Y-96492000D01*
X117940000Y-88222000D02*
X117983000Y-88265000D01*
X117094000Y-88222000D02*
X117940000Y-88222000D01*
X119126000Y-85471000D02*
X119126000Y-84455000D01*
X131925000Y-87348000D02*
X131953000Y-87376000D01*
X131064000Y-87348000D02*
X131925000Y-87348000D01*
X138176000Y-86868000D02*
X138206000Y-86838000D01*
X138206000Y-86838000D02*
X139331000Y-86838000D01*
X123829000Y-95500000D02*
X124206000Y-95123000D01*
X123134000Y-95500000D02*
X123829000Y-95500000D01*
%TO.N,/NRST*%
X120805500Y-89658000D02*
X122551000Y-89658000D01*
X122551000Y-89658000D02*
X123190000Y-90297000D01*
X123190000Y-90297000D02*
X123190000Y-91259959D01*
X123190000Y-91259959D02*
X121031000Y-93418959D01*
X121031000Y-93418959D02*
X121031000Y-94742000D01*
X121031000Y-94742000D02*
X121789000Y-95500000D01*
X121789000Y-95500000D02*
X122174000Y-95500000D01*
%TO.N,GND*%
X127218000Y-93570500D02*
X127218000Y-95568000D01*
X127218000Y-95568000D02*
X127155000Y-95631000D01*
%TO.N,/I2C2_SDA*%
X126519400Y-97409000D02*
X126519400Y-99794600D01*
X126519400Y-99794600D02*
X124460000Y-101854000D01*
X124460000Y-101854000D02*
X124460000Y-103378000D01*
%TO.N,/I2C2_SCL*%
X123313000Y-97409000D02*
X123313000Y-98048000D01*
X123313000Y-98048000D02*
X122460000Y-98901000D01*
X122460000Y-98901000D02*
X122460000Y-103378000D01*
%TO.N,/I2C2_SDA*%
X126718000Y-93570500D02*
X126718000Y-94770000D01*
X126718000Y-94770000D02*
X126365000Y-95123000D01*
X126365000Y-95123000D02*
X126365000Y-97254600D01*
X126365000Y-97254600D02*
X126519400Y-97409000D01*
%TO.N,+3.3V*%
X127718000Y-93570500D02*
X127718000Y-94825000D01*
X128115000Y-95222000D02*
X128115000Y-95631000D01*
X127718000Y-94825000D02*
X128115000Y-95222000D01*
%TO.N,/I2C2_SCL*%
X126218000Y-93570500D02*
X126218000Y-94409041D01*
X123313000Y-97314041D02*
X123313000Y-97409000D01*
X126218000Y-94409041D02*
X123313000Y-97314041D01*
%TO.N,/BOOT0*%
X124218000Y-85245500D02*
X124218000Y-79895000D01*
X124218000Y-79895000D02*
X122555000Y-78232000D01*
X122555000Y-78232000D02*
X114808000Y-78232000D01*
X114808000Y-78232000D02*
X112014000Y-81026000D01*
%TO.N,/FW_BOOT0*%
X110032800Y-82878800D02*
X111181200Y-82878800D01*
X111181200Y-82878800D02*
X112014000Y-82046000D01*
%TO.N,/SWDCLK*%
X129469200Y-82468400D02*
X129469200Y-72796400D01*
%TO.N,/USB_D-*%
X139331000Y-88788000D02*
X138261498Y-88788000D01*
X138261498Y-88788000D02*
X138156498Y-88683000D01*
%TO.N,/USB_D+*%
X138156498Y-88183000D02*
X138201498Y-88138000D01*
X138201498Y-88138000D02*
X139331000Y-88138000D01*
D36*
X129130500Y-88158000D02*
X129155499Y-88182999D01*
X129155499Y-88182999D02*
X138156498Y-88183000D01*
%TO.N,/USB_D-*%
X129155499Y-88633001D02*
X138156498Y-88633000D01*
X129130500Y-88658000D02*
X129155499Y-88633001D01*
D35*
%TO.N,+3.3V*%
X120805500Y-86658000D02*
X119353000Y-86658000D01*
X119353000Y-86658000D02*
X119126000Y-86431000D01*
%TO.N,/HSE_IN*%
X117094000Y-87122000D02*
X116696000Y-87122000D01*
X116696000Y-87122000D02*
X116212000Y-86638000D01*
X113812000Y-86638000D02*
X112762000Y-85588000D01*
X116212000Y-86638000D02*
X113812000Y-86638000D01*
X112762000Y-85588000D02*
X112762000Y-85238000D01*
X120805500Y-88658000D02*
X119646000Y-88658000D01*
X119646000Y-88658000D02*
X118110000Y-87122000D01*
X118110000Y-87122000D02*
X117094000Y-87122000D01*
%TO.N,/HSE_OUT*%
X117094000Y-89182000D02*
X116106000Y-89182000D01*
X116106000Y-89182000D02*
X115062000Y-88138000D01*
X120805500Y-89158000D02*
X117118000Y-89158000D01*
X117118000Y-89158000D02*
X117094000Y-89182000D01*
%TO.N,GND*%
X119622000Y-90158000D02*
X119380000Y-89916000D01*
X119380000Y-89916000D02*
X118928000Y-89916000D01*
X120805500Y-90158000D02*
X119622000Y-90158000D01*
X118928000Y-89916000D02*
X118872000Y-89972000D01*
%TO.N,+3.3V*%
X129130500Y-86658000D02*
X130258000Y-86658000D01*
X130258000Y-86658000D02*
X130528000Y-86388000D01*
X130528000Y-86388000D02*
X131064000Y-86388000D01*
%TO.N,GND*%
X130084000Y-87158000D02*
X130302000Y-87376000D01*
X129130500Y-87158000D02*
X130084000Y-87158000D01*
X130302000Y-87376000D02*
X131036000Y-87376000D01*
X131036000Y-87376000D02*
X131064000Y-87348000D01*
D34*
X123203000Y-81788000D02*
X123203000Y-82283000D01*
X123203000Y-82283000D02*
X122900000Y-82586000D01*
X122900000Y-82586000D02*
X122900000Y-83400000D01*
%TO.N,+3.3V*%
X121653000Y-81788000D02*
X121653000Y-82537000D01*
X121653000Y-82537000D02*
X121940000Y-82824000D01*
X121940000Y-82824000D02*
X121940000Y-83400000D01*
D37*
%TO.N,GND*%
X122718000Y-84292000D02*
X122936000Y-84074000D01*
X122718000Y-85245500D02*
X122718000Y-84292000D01*
X122936000Y-84074000D02*
X122936000Y-83436000D01*
X122936000Y-83436000D02*
X122900000Y-83400000D01*
%TO.N,+3.3V*%
X122218000Y-84372000D02*
X121920000Y-84074000D01*
X122218000Y-85245500D02*
X122218000Y-84372000D01*
X121920000Y-84074000D02*
X121920000Y-83420000D01*
X121920000Y-83420000D02*
X121940000Y-83400000D01*
%TD*%
%TA.AperFunction,Conductor*%
%TO.N,GND*%
G36*
X136674503Y-91587002D02*
G01*
X136687043Y-91596203D01*
X137050248Y-91898873D01*
X137368663Y-92164219D01*
X137408190Y-92223195D01*
X137414000Y-92261015D01*
X137414000Y-94488000D01*
X137795000Y-95123000D01*
X139891000Y-95123000D01*
X139959121Y-95143002D01*
X139991800Y-95173400D01*
X140309800Y-95597400D01*
X140334671Y-95663898D01*
X140335000Y-95673000D01*
X140335000Y-96351000D01*
X140314998Y-96419121D01*
X140309800Y-96426600D01*
X139992340Y-96849880D01*
X139935466Y-96892375D01*
X139890107Y-96900272D01*
X136413159Y-96860631D01*
X135771511Y-96853316D01*
X135703622Y-96832538D01*
X135684421Y-96816985D01*
X135358058Y-96494753D01*
X135323637Y-96432659D01*
X135320621Y-96402059D01*
X135351472Y-95120809D01*
X135382000Y-93853000D01*
X135375096Y-93839193D01*
X135375096Y-93839191D01*
X135263101Y-93615202D01*
X135255000Y-93599000D01*
X134785149Y-93599000D01*
X134715257Y-93577838D01*
X134422108Y-93382405D01*
X134376523Y-93327976D01*
X134366000Y-93277567D01*
X134366000Y-91898873D01*
X134386002Y-91830752D01*
X134435651Y-91786175D01*
X134847396Y-91580302D01*
X134903745Y-91567000D01*
X136606382Y-91567000D01*
X136674503Y-91587002D01*
G37*
%TD.AperFunction*%
%TD*%
%TA.AperFunction,Conductor*%
%TO.N,VBUS*%
G36*
X138568271Y-89291760D02*
G01*
X138610673Y-89310506D01*
X138636354Y-89313500D01*
X140025646Y-89313500D01*
X140029350Y-89313059D01*
X140029353Y-89313059D01*
X140042461Y-89311499D01*
X140042462Y-89311499D01*
X140051846Y-89310382D01*
X140093573Y-89291848D01*
X140144719Y-89281000D01*
X140155810Y-89281000D01*
X140223931Y-89301002D01*
X140244905Y-89317905D01*
X140298095Y-89371095D01*
X140332121Y-89433407D01*
X140335000Y-89460190D01*
X140335000Y-89609810D01*
X140314998Y-89677931D01*
X140298095Y-89698905D01*
X140244905Y-89752095D01*
X140182593Y-89786121D01*
X140155810Y-89789000D01*
X134493000Y-89789000D01*
X134485957Y-89796387D01*
X133766479Y-90551000D01*
X133741468Y-90577232D01*
X133741427Y-90588449D01*
X133741427Y-90588450D01*
X133731354Y-93373989D01*
X133711106Y-93442037D01*
X133657282Y-93488335D01*
X133635915Y-93495771D01*
X133436982Y-93545505D01*
X133238047Y-93595238D01*
X133207489Y-93599000D01*
X132842000Y-93599000D01*
X132588000Y-93853000D01*
X132588000Y-95959810D01*
X132567998Y-96027931D01*
X132551095Y-96048905D01*
X132370905Y-96229095D01*
X132308593Y-96263121D01*
X132281810Y-96266000D01*
X131102149Y-96266000D01*
X131032257Y-96244838D01*
X130739108Y-96049405D01*
X130693523Y-95994976D01*
X130683000Y-95944567D01*
X130683000Y-94039015D01*
X130703002Y-93970894D01*
X130728337Y-93942219D01*
X131424549Y-93362043D01*
X131470597Y-93337687D01*
X131833162Y-93234097D01*
X132334000Y-93091000D01*
X132334000Y-90603190D01*
X132354002Y-90535069D01*
X132370905Y-90514095D01*
X133567095Y-89317905D01*
X133629407Y-89283879D01*
X133656190Y-89281000D01*
X138517323Y-89281000D01*
X138568271Y-89291760D01*
G37*
%TD.AperFunction*%
%TD*%
%TA.AperFunction,Conductor*%
%TO.N,+3.3V*%
G36*
X134762931Y-94000002D02*
G01*
X134783905Y-94016905D01*
X134964095Y-94197095D01*
X134998121Y-94259407D01*
X135001000Y-94286190D01*
X135001000Y-97282000D01*
X135011347Y-97297521D01*
X135011348Y-97297523D01*
X135110270Y-97445905D01*
X135255000Y-97663000D01*
X137541000Y-97663000D01*
X137758095Y-97445905D01*
X137820407Y-97411879D01*
X137847190Y-97409000D01*
X139280851Y-97409000D01*
X139350743Y-97430162D01*
X139643892Y-97625595D01*
X139689477Y-97680024D01*
X139700000Y-97730433D01*
X139700000Y-98626810D01*
X139679998Y-98694931D01*
X139663095Y-98715905D01*
X139355905Y-99023095D01*
X139293593Y-99057121D01*
X139266810Y-99060000D01*
X138430000Y-99060000D01*
X137922000Y-99314000D01*
X137922000Y-101935382D01*
X137901998Y-102003503D01*
X137892797Y-102016043D01*
X137324781Y-102697663D01*
X137265805Y-102737190D01*
X137227985Y-102743000D01*
X132241899Y-102743000D01*
X132177074Y-102725045D01*
X131633173Y-102398704D01*
X131585051Y-102346505D01*
X131572000Y-102290660D01*
X131572000Y-99106610D01*
X131592002Y-99038489D01*
X131602334Y-99024610D01*
X131866939Y-98715905D01*
X133096000Y-97282000D01*
X133096000Y-94286190D01*
X133116002Y-94218069D01*
X133132905Y-94197095D01*
X133313095Y-94016905D01*
X133375407Y-93982879D01*
X133402190Y-93980000D01*
X134694810Y-93980000D01*
X134762931Y-94000002D01*
G37*
%TD.AperFunction*%
%TD*%
M02*
