%TF.GenerationSoftware,KiCad,Pcbnew,(6.0.7-1)-1*%
%TF.CreationDate,2022-10-07T20:30:11-05:00*%
%TF.ProjectId,KiCad,4b694361-642e-46b6-9963-61645f706362,rev?*%
%TF.SameCoordinates,Original*%
%TF.FileFunction,Copper,L2,Bot*%
%TF.FilePolarity,Positive*%
%FSLAX46Y46*%
G04 Gerber Fmt 4.6, Leading zero omitted, Abs format (unit mm)*
G04 Created by KiCad (PCBNEW (6.0.7-1)-1) date 2022-10-07 20:30:11*
%MOMM*%
%LPD*%
G01*
G04 APERTURE LIST*
%TA.AperFunction,ComponentPad*%
%ADD10R,1.350000X1.350000*%
%TD*%
%TA.AperFunction,ComponentPad*%
%ADD11O,1.350000X1.350000*%
%TD*%
%TA.AperFunction,ViaPad*%
%ADD12C,0.700000*%
%TD*%
%TA.AperFunction,Conductor*%
%ADD13C,0.500000*%
%TD*%
G04 APERTURE END LIST*
D10*
%TO.P,J3,1,Pin_1*%
%TO.N,+3.3V*%
X133469200Y-72796400D03*
D11*
%TO.P,J3,2,Pin_2*%
%TO.N,/SWDIO*%
X131469200Y-72796400D03*
%TO.P,J3,3,Pin_3*%
%TO.N,/SWDCLK*%
X129469200Y-72796400D03*
%TO.P,J3,4,Pin_4*%
%TO.N,GND*%
X127469200Y-72796400D03*
%TD*%
D10*
%TO.P,J1,1,Pin_1*%
%TO.N,+3.3V*%
X123869200Y-72796400D03*
D11*
%TO.P,J1,2,Pin_2*%
%TO.N,/USART1_TX*%
X121869200Y-72796400D03*
%TO.P,J1,3,Pin_3*%
%TO.N,/USART1_RX*%
X119869200Y-72796400D03*
%TO.P,J1,4,Pin_4*%
%TO.N,GND*%
X117869200Y-72796400D03*
%TD*%
D10*
%TO.P,J2,1,Pin_1*%
%TO.N,+3.3V*%
X120460000Y-103378000D03*
D11*
%TO.P,J2,2,Pin_2*%
%TO.N,/I2C2_SCL*%
X122460000Y-103378000D03*
%TO.P,J2,3,Pin_3*%
%TO.N,/I2C2_SDA*%
X124460000Y-103378000D03*
%TO.P,J2,4,Pin_4*%
%TO.N,GND*%
X126460000Y-103378000D03*
%TD*%
D12*
%TO.N,GND*%
X138176000Y-86868000D03*
X110617000Y-85471000D03*
X127203200Y-92354400D03*
X139827000Y-96139000D03*
X131953000Y-87376000D03*
X122809000Y-86614000D03*
X112725200Y-90068400D03*
X135890000Y-96393000D03*
X116840000Y-93218000D03*
X136271000Y-93218000D03*
X116840000Y-96520000D03*
X136271000Y-92329000D03*
X143408400Y-94945200D03*
X136779000Y-96393000D03*
X119126000Y-84455000D03*
X122174000Y-90357500D03*
X124206000Y-95123000D03*
X117983000Y-88265000D03*
X117983000Y-86233000D03*
X115062000Y-83566000D03*
%TO.N,+3.3V*%
X142798800Y-96062800D03*
X123190000Y-99923600D03*
X114604800Y-79857600D03*
X127218900Y-98856800D03*
X113334800Y-78587600D03*
X142595600Y-93929200D03*
X125819900Y-98856800D03*
X121760500Y-99923600D03*
%TD*%
D13*
%TO.N,+3.3V*%
X113334800Y-78587600D02*
X114604800Y-79857600D01*
X123190000Y-99923600D02*
X121760500Y-99923600D01*
X142595600Y-95859600D02*
X142595600Y-93929200D01*
X127218900Y-98856800D02*
X125819900Y-98856800D01*
X142798800Y-96062800D02*
X142595600Y-95859600D01*
%TD*%
%TA.AperFunction,Conductor*%
%TO.N,GND*%
G36*
X142226008Y-70660669D02*
G01*
X142240000Y-70663136D01*
X142250684Y-70661252D01*
X142258841Y-70661252D01*
X142274378Y-70660302D01*
X142547255Y-70674603D01*
X142560163Y-70675960D01*
X142857623Y-70723073D01*
X142870319Y-70725771D01*
X143161240Y-70803723D01*
X143173583Y-70807734D01*
X143454752Y-70915664D01*
X143466607Y-70920942D01*
X143582945Y-70980219D01*
X143734964Y-71057677D01*
X143746204Y-71064167D01*
X143998784Y-71228194D01*
X144009285Y-71235823D01*
X144243349Y-71425364D01*
X144252994Y-71434049D01*
X144465951Y-71647006D01*
X144474636Y-71656651D01*
X144664177Y-71890715D01*
X144671806Y-71901216D01*
X144835833Y-72153796D01*
X144842323Y-72165036D01*
X144886333Y-72251410D01*
X144967267Y-72410250D01*
X144979057Y-72433390D01*
X144984336Y-72445248D01*
X145092266Y-72726417D01*
X145096277Y-72738760D01*
X145174229Y-73029681D01*
X145176927Y-73042377D01*
X145224040Y-73339837D01*
X145225397Y-73352745D01*
X145239698Y-73625622D01*
X145238748Y-73641159D01*
X145238748Y-73649316D01*
X145236864Y-73660000D01*
X145239285Y-73673731D01*
X145241163Y-73696364D01*
X145145797Y-84377302D01*
X144993068Y-101483037D01*
X144987826Y-102070091D01*
X144985948Y-102090511D01*
X144982864Y-102108000D01*
X144984748Y-102118685D01*
X144984748Y-102128339D01*
X144985575Y-102142278D01*
X144980546Y-102231819D01*
X144970614Y-102408670D01*
X144969057Y-102422488D01*
X144933434Y-102632154D01*
X144926348Y-102673860D01*
X144919781Y-102712508D01*
X144916687Y-102726064D01*
X144835246Y-103008753D01*
X144830655Y-103021875D01*
X144823414Y-103039355D01*
X144718077Y-103293661D01*
X144712044Y-103306189D01*
X144569740Y-103563669D01*
X144562341Y-103575443D01*
X144392116Y-103815352D01*
X144383447Y-103826224D01*
X144187416Y-104045583D01*
X144177583Y-104055416D01*
X143958224Y-104251447D01*
X143947352Y-104260116D01*
X143707443Y-104430341D01*
X143695669Y-104437740D01*
X143438189Y-104580044D01*
X143425661Y-104586077D01*
X143257928Y-104655555D01*
X143153875Y-104698655D01*
X143140753Y-104703246D01*
X142858064Y-104784687D01*
X142844508Y-104787781D01*
X142554488Y-104837057D01*
X142540670Y-104838614D01*
X142378473Y-104847723D01*
X142274278Y-104853575D01*
X142260339Y-104852748D01*
X142250685Y-104852748D01*
X142240000Y-104850864D01*
X142224391Y-104853616D01*
X142202861Y-104855500D01*
X109511139Y-104855500D01*
X109489609Y-104853616D01*
X109474000Y-104850864D01*
X109463315Y-104852748D01*
X109453661Y-104852748D01*
X109439722Y-104853575D01*
X109335527Y-104847723D01*
X109173330Y-104838614D01*
X109159512Y-104837057D01*
X108869492Y-104787781D01*
X108855936Y-104784687D01*
X108573247Y-104703246D01*
X108560125Y-104698655D01*
X108456072Y-104655555D01*
X108288339Y-104586077D01*
X108275811Y-104580044D01*
X108018331Y-104437740D01*
X108006557Y-104430341D01*
X107766648Y-104260116D01*
X107755776Y-104251447D01*
X107583672Y-104097646D01*
X119484500Y-104097646D01*
X119487618Y-104123846D01*
X119533061Y-104226153D01*
X119612287Y-104305241D01*
X119622758Y-104309870D01*
X119622759Y-104309871D01*
X119706147Y-104346737D01*
X119706149Y-104346738D01*
X119714673Y-104350506D01*
X119740354Y-104353500D01*
X121179646Y-104353500D01*
X121183300Y-104353065D01*
X121183302Y-104353065D01*
X121188266Y-104352474D01*
X121205846Y-104350382D01*
X121308153Y-104304939D01*
X121387241Y-104225713D01*
X121391871Y-104215241D01*
X121428737Y-104131853D01*
X121428738Y-104131851D01*
X121432506Y-104123327D01*
X121435500Y-104097646D01*
X121435500Y-104012028D01*
X121455185Y-103944989D01*
X121507989Y-103899234D01*
X121577147Y-103889290D01*
X121640703Y-103918315D01*
X121656676Y-103935004D01*
X121754889Y-104058918D01*
X121900575Y-104182907D01*
X122067570Y-104276237D01*
X122249512Y-104335354D01*
X122255530Y-104336072D01*
X122255532Y-104336072D01*
X122384759Y-104351481D01*
X122439472Y-104358005D01*
X122445516Y-104357540D01*
X122445517Y-104357540D01*
X122504050Y-104353036D01*
X122630213Y-104343328D01*
X122751063Y-104309586D01*
X122808631Y-104293513D01*
X122808633Y-104293512D01*
X122814472Y-104291882D01*
X122985228Y-104205627D01*
X123135979Y-104087848D01*
X123139935Y-104083264D01*
X123139939Y-104083261D01*
X123257020Y-103947620D01*
X123260982Y-103943030D01*
X123265541Y-103935006D01*
X123333513Y-103815352D01*
X123353814Y-103779618D01*
X123404042Y-103731051D01*
X123472555Y-103717349D01*
X123537599Y-103742864D01*
X123571917Y-103784186D01*
X123590857Y-103821038D01*
X123636060Y-103908993D01*
X123639826Y-103913745D01*
X123639827Y-103913746D01*
X123685189Y-103970978D01*
X123754889Y-104058918D01*
X123900575Y-104182907D01*
X124067570Y-104276237D01*
X124249512Y-104335354D01*
X124255530Y-104336072D01*
X124255532Y-104336072D01*
X124384759Y-104351481D01*
X124439472Y-104358005D01*
X124445516Y-104357540D01*
X124445517Y-104357540D01*
X124504050Y-104353036D01*
X124630213Y-104343328D01*
X124751063Y-104309586D01*
X124808631Y-104293513D01*
X124808633Y-104293512D01*
X124814472Y-104291882D01*
X124985228Y-104205627D01*
X125135979Y-104087848D01*
X125139935Y-104083264D01*
X125139939Y-104083261D01*
X125245022Y-103961520D01*
X125303728Y-103923634D01*
X125373598Y-103923501D01*
X125432448Y-103961163D01*
X125440154Y-103970978D01*
X125559416Y-104139731D01*
X125566765Y-104148335D01*
X125713308Y-104291091D01*
X125722111Y-104298219D01*
X125892206Y-104411873D01*
X125902164Y-104417280D01*
X126090124Y-104498034D01*
X126100896Y-104501534D01*
X126192609Y-104522287D01*
X126206462Y-104521412D01*
X126210000Y-104512163D01*
X126210000Y-104511293D01*
X126710000Y-104511293D01*
X126713903Y-104524587D01*
X126727681Y-104526560D01*
X126729841Y-104526246D01*
X126740864Y-104523600D01*
X126934573Y-104457845D01*
X126944925Y-104453236D01*
X127123426Y-104353271D01*
X127132745Y-104346866D01*
X127290043Y-104216042D01*
X127298042Y-104208043D01*
X127428866Y-104050745D01*
X127435271Y-104041426D01*
X127535236Y-103862925D01*
X127539845Y-103852573D01*
X127605600Y-103658864D01*
X127608246Y-103647841D01*
X127608565Y-103645645D01*
X127606609Y-103631929D01*
X127593257Y-103628000D01*
X126727830Y-103628000D01*
X126712831Y-103632404D01*
X126711644Y-103633774D01*
X126710000Y-103641332D01*
X126710000Y-104511293D01*
X126210000Y-104511293D01*
X126210000Y-103110170D01*
X126710000Y-103110170D01*
X126714404Y-103125169D01*
X126715774Y-103126356D01*
X126723332Y-103128000D01*
X127592585Y-103128000D01*
X127605902Y-103124090D01*
X127607054Y-103116082D01*
X127563199Y-102960583D01*
X127559143Y-102950016D01*
X127468660Y-102766537D01*
X127462741Y-102756877D01*
X127340335Y-102592955D01*
X127332763Y-102584545D01*
X127182534Y-102445676D01*
X127173549Y-102438781D01*
X127000533Y-102329616D01*
X126990442Y-102324475D01*
X126800436Y-102248670D01*
X126789564Y-102245449D01*
X126727488Y-102233102D01*
X126714816Y-102234236D01*
X126710000Y-102249148D01*
X126710000Y-103110170D01*
X126210000Y-103110170D01*
X126210000Y-102246483D01*
X126206254Y-102233725D01*
X126191573Y-102231819D01*
X126160188Y-102237212D01*
X126149252Y-102240143D01*
X125957312Y-102310953D01*
X125947101Y-102315823D01*
X125771277Y-102420426D01*
X125762119Y-102427080D01*
X125608306Y-102561971D01*
X125600516Y-102570180D01*
X125473859Y-102730843D01*
X125467692Y-102740340D01*
X125449560Y-102774803D01*
X125400925Y-102824967D01*
X125332890Y-102840874D01*
X125267056Y-102817473D01*
X125243728Y-102795439D01*
X125196435Y-102737451D01*
X125155535Y-102687303D01*
X125031322Y-102584545D01*
X125012808Y-102569229D01*
X125012806Y-102569228D01*
X125008132Y-102565361D01*
X124839851Y-102474371D01*
X124657101Y-102417801D01*
X124466843Y-102397804D01*
X124460810Y-102398353D01*
X124460806Y-102398353D01*
X124282367Y-102414592D01*
X124282365Y-102414592D01*
X124276325Y-102415142D01*
X124270506Y-102416855D01*
X124270504Y-102416855D01*
X124098618Y-102467444D01*
X124098613Y-102467446D01*
X124092803Y-102469156D01*
X124087433Y-102471963D01*
X124087429Y-102471965D01*
X124020877Y-102506758D01*
X123923268Y-102557787D01*
X123889988Y-102584545D01*
X123793610Y-102662035D01*
X123774176Y-102677660D01*
X123651207Y-102824208D01*
X123576234Y-102960583D01*
X123568115Y-102975352D01*
X123518569Y-103024616D01*
X123450253Y-103039272D01*
X123384859Y-103014668D01*
X123349968Y-102973829D01*
X123342925Y-102960583D01*
X123276446Y-102835555D01*
X123155535Y-102687303D01*
X123031322Y-102584545D01*
X123012808Y-102569229D01*
X123012806Y-102569228D01*
X123008132Y-102565361D01*
X122839851Y-102474371D01*
X122657101Y-102417801D01*
X122466843Y-102397804D01*
X122460810Y-102398353D01*
X122460806Y-102398353D01*
X122282367Y-102414592D01*
X122282365Y-102414592D01*
X122276325Y-102415142D01*
X122270506Y-102416855D01*
X122270504Y-102416855D01*
X122098618Y-102467444D01*
X122098613Y-102467446D01*
X122092803Y-102469156D01*
X122087433Y-102471963D01*
X122087429Y-102471965D01*
X122020877Y-102506758D01*
X121923268Y-102557787D01*
X121889988Y-102584545D01*
X121793610Y-102662035D01*
X121774176Y-102677660D01*
X121654489Y-102820297D01*
X121596318Y-102858999D01*
X121526457Y-102860107D01*
X121467087Y-102823270D01*
X121437058Y-102760183D01*
X121435500Y-102740591D01*
X121435500Y-102658354D01*
X121432382Y-102632154D01*
X121386939Y-102529847D01*
X121307713Y-102450759D01*
X121297242Y-102446130D01*
X121297241Y-102446129D01*
X121213853Y-102409263D01*
X121213851Y-102409262D01*
X121205327Y-102405494D01*
X121179646Y-102402500D01*
X119740354Y-102402500D01*
X119736700Y-102402935D01*
X119736698Y-102402935D01*
X119731734Y-102403526D01*
X119714154Y-102405618D01*
X119611847Y-102451061D01*
X119532759Y-102530287D01*
X119528130Y-102540758D01*
X119528129Y-102540759D01*
X119515543Y-102569229D01*
X119487494Y-102632673D01*
X119484500Y-102658354D01*
X119484500Y-104097646D01*
X107583672Y-104097646D01*
X107536417Y-104055416D01*
X107526584Y-104045583D01*
X107330553Y-103826224D01*
X107321884Y-103815352D01*
X107151659Y-103575443D01*
X107144260Y-103563669D01*
X107001956Y-103306189D01*
X106995923Y-103293661D01*
X106890586Y-103039355D01*
X106883345Y-103021875D01*
X106878754Y-103008753D01*
X106797313Y-102726064D01*
X106794219Y-102712508D01*
X106787653Y-102673860D01*
X106780566Y-102632154D01*
X106744943Y-102422488D01*
X106743386Y-102408670D01*
X106733454Y-102231819D01*
X106728425Y-102142278D01*
X106729252Y-102128339D01*
X106729252Y-102118685D01*
X106731136Y-102108000D01*
X106728052Y-102090511D01*
X106726173Y-102070084D01*
X106725920Y-102041789D01*
X108095996Y-102041789D01*
X108099769Y-102142280D01*
X108103131Y-102231819D01*
X108104913Y-102279295D01*
X108105990Y-102284430D01*
X108105991Y-102284435D01*
X108152639Y-102506758D01*
X108153719Y-102511904D01*
X108155648Y-102516788D01*
X108155649Y-102516792D01*
X108185728Y-102592955D01*
X108241020Y-102732963D01*
X108243741Y-102737447D01*
X108243743Y-102737451D01*
X108311233Y-102848670D01*
X108364319Y-102936153D01*
X108398334Y-102975352D01*
X108515323Y-103110170D01*
X108520090Y-103115664D01*
X108703880Y-103266362D01*
X108708441Y-103268958D01*
X108708442Y-103268959D01*
X108905875Y-103381345D01*
X108905880Y-103381347D01*
X108910433Y-103383939D01*
X109133844Y-103465034D01*
X109367725Y-103507326D01*
X109392619Y-103508500D01*
X109559680Y-103508500D01*
X109562296Y-103508278D01*
X109562297Y-103508278D01*
X109731590Y-103493913D01*
X109736823Y-103493469D01*
X109966874Y-103433760D01*
X110183576Y-103336143D01*
X110380732Y-103203409D01*
X110552705Y-103039355D01*
X110694579Y-102848670D01*
X110707493Y-102823270D01*
X110799913Y-102641493D01*
X110799915Y-102641488D01*
X110802295Y-102636807D01*
X110815912Y-102592955D01*
X110871215Y-102414848D01*
X110872775Y-102409824D01*
X110874284Y-102398438D01*
X110903315Y-102179412D01*
X110903315Y-102179408D01*
X110904004Y-102174211D01*
X110899032Y-102041789D01*
X140835996Y-102041789D01*
X140839769Y-102142280D01*
X140843131Y-102231819D01*
X140844913Y-102279295D01*
X140845990Y-102284430D01*
X140845991Y-102284435D01*
X140892639Y-102506758D01*
X140893719Y-102511904D01*
X140895648Y-102516788D01*
X140895649Y-102516792D01*
X140925728Y-102592955D01*
X140981020Y-102732963D01*
X140983741Y-102737447D01*
X140983743Y-102737451D01*
X141051233Y-102848670D01*
X141104319Y-102936153D01*
X141138334Y-102975352D01*
X141255323Y-103110170D01*
X141260090Y-103115664D01*
X141443880Y-103266362D01*
X141448441Y-103268958D01*
X141448442Y-103268959D01*
X141645875Y-103381345D01*
X141645880Y-103381347D01*
X141650433Y-103383939D01*
X141873844Y-103465034D01*
X142107725Y-103507326D01*
X142132619Y-103508500D01*
X142299680Y-103508500D01*
X142302296Y-103508278D01*
X142302297Y-103508278D01*
X142471590Y-103493913D01*
X142476823Y-103493469D01*
X142706874Y-103433760D01*
X142923576Y-103336143D01*
X143120732Y-103203409D01*
X143292705Y-103039355D01*
X143434579Y-102848670D01*
X143447493Y-102823270D01*
X143539913Y-102641493D01*
X143539915Y-102641488D01*
X143542295Y-102636807D01*
X143555912Y-102592955D01*
X143611215Y-102414848D01*
X143612775Y-102409824D01*
X143614284Y-102398438D01*
X143643315Y-102179412D01*
X143643315Y-102179408D01*
X143644004Y-102174211D01*
X143635087Y-101936705D01*
X143607700Y-101806176D01*
X143587361Y-101709242D01*
X143587360Y-101709239D01*
X143586281Y-101704096D01*
X143498980Y-101483037D01*
X143431607Y-101372009D01*
X143378408Y-101284341D01*
X143375681Y-101279847D01*
X143219910Y-101100336D01*
X143036120Y-100949638D01*
X142918687Y-100882791D01*
X142834125Y-100834655D01*
X142834120Y-100834653D01*
X142829567Y-100832061D01*
X142606156Y-100750966D01*
X142372275Y-100708674D01*
X142347381Y-100707500D01*
X142180320Y-100707500D01*
X142177704Y-100707722D01*
X142177703Y-100707722D01*
X142166484Y-100708674D01*
X142003177Y-100722531D01*
X141773126Y-100782240D01*
X141556424Y-100879857D01*
X141359268Y-101012591D01*
X141187295Y-101176645D01*
X141045421Y-101367330D01*
X141043042Y-101372008D01*
X141043042Y-101372009D01*
X140988875Y-101478549D01*
X140937705Y-101579193D01*
X140867225Y-101806176D01*
X140835996Y-102041789D01*
X110899032Y-102041789D01*
X110895087Y-101936705D01*
X110867700Y-101806176D01*
X110847361Y-101709242D01*
X110847360Y-101709239D01*
X110846281Y-101704096D01*
X110758980Y-101483037D01*
X110691607Y-101372009D01*
X110638408Y-101284341D01*
X110635681Y-101279847D01*
X110479910Y-101100336D01*
X110296120Y-100949638D01*
X110178687Y-100882791D01*
X110094125Y-100834655D01*
X110094120Y-100834653D01*
X110089567Y-100832061D01*
X109866156Y-100750966D01*
X109632275Y-100708674D01*
X109607381Y-100707500D01*
X109440320Y-100707500D01*
X109437704Y-100707722D01*
X109437703Y-100707722D01*
X109426484Y-100708674D01*
X109263177Y-100722531D01*
X109033126Y-100782240D01*
X108816424Y-100879857D01*
X108619268Y-101012591D01*
X108447295Y-101176645D01*
X108305421Y-101367330D01*
X108303042Y-101372008D01*
X108303042Y-101372009D01*
X108248875Y-101478549D01*
X108197705Y-101579193D01*
X108127225Y-101806176D01*
X108095996Y-102041789D01*
X106725920Y-102041789D01*
X106720892Y-101478549D01*
X106706947Y-99916738D01*
X121105258Y-99916738D01*
X121106078Y-99924166D01*
X121106078Y-99924168D01*
X121107974Y-99941344D01*
X121122535Y-100073233D01*
X121176643Y-100221090D01*
X121264458Y-100351772D01*
X121286683Y-100371995D01*
X121375378Y-100452702D01*
X121375382Y-100452705D01*
X121380910Y-100457735D01*
X121387480Y-100461302D01*
X121387481Y-100461303D01*
X121512708Y-100529296D01*
X121519276Y-100532862D01*
X121621531Y-100559688D01*
X121664341Y-100570919D01*
X121664343Y-100570919D01*
X121671569Y-100572815D01*
X121748627Y-100574025D01*
X121821525Y-100575171D01*
X121821528Y-100575171D01*
X121828995Y-100575288D01*
X121836276Y-100573620D01*
X121836280Y-100573620D01*
X121975177Y-100541808D01*
X121975178Y-100541808D01*
X121982468Y-100540138D01*
X122087481Y-100487322D01*
X122143197Y-100474100D01*
X122809058Y-100474100D01*
X122868226Y-100489127D01*
X122948776Y-100532862D01*
X123051031Y-100559688D01*
X123093841Y-100570919D01*
X123093843Y-100570919D01*
X123101069Y-100572815D01*
X123178127Y-100574025D01*
X123251025Y-100575171D01*
X123251028Y-100575171D01*
X123258495Y-100575288D01*
X123265776Y-100573620D01*
X123265780Y-100573620D01*
X123404681Y-100541807D01*
X123411968Y-100540138D01*
X123552625Y-100469395D01*
X123558306Y-100464543D01*
X123558309Y-100464541D01*
X123666666Y-100371995D01*
X123666667Y-100371994D01*
X123672348Y-100367142D01*
X123683393Y-100351772D01*
X123703798Y-100323375D01*
X123764224Y-100239283D01*
X123822950Y-100093198D01*
X123824793Y-100080249D01*
X123844562Y-99941344D01*
X123844562Y-99941340D01*
X123845134Y-99937323D01*
X123845278Y-99923600D01*
X123826363Y-99767294D01*
X123770710Y-99620012D01*
X123692442Y-99506132D01*
X123685768Y-99496421D01*
X123685765Y-99496418D01*
X123681531Y-99490257D01*
X123605288Y-99422327D01*
X123569559Y-99390493D01*
X123569558Y-99390492D01*
X123563976Y-99385519D01*
X123424831Y-99311845D01*
X123272128Y-99273489D01*
X123190329Y-99273061D01*
X123122158Y-99272704D01*
X123122157Y-99272704D01*
X123114684Y-99272665D01*
X123107421Y-99274409D01*
X123107418Y-99274409D01*
X123042453Y-99290006D01*
X122961588Y-99309420D01*
X122896418Y-99343057D01*
X122864968Y-99359289D01*
X122808096Y-99373100D01*
X122141824Y-99373100D01*
X122083801Y-99358687D01*
X122001943Y-99315345D01*
X122001937Y-99315343D01*
X121995331Y-99311845D01*
X121842628Y-99273489D01*
X121760829Y-99273061D01*
X121692658Y-99272704D01*
X121692657Y-99272704D01*
X121685184Y-99272665D01*
X121677921Y-99274409D01*
X121677918Y-99274409D01*
X121612953Y-99290006D01*
X121532088Y-99309420D01*
X121392179Y-99381632D01*
X121273534Y-99485133D01*
X121183001Y-99613948D01*
X121125809Y-99760639D01*
X121105258Y-99916738D01*
X106706947Y-99916738D01*
X106697422Y-98849938D01*
X125164658Y-98849938D01*
X125165478Y-98857366D01*
X125165478Y-98857368D01*
X125167374Y-98874544D01*
X125181935Y-99006433D01*
X125236043Y-99154290D01*
X125240214Y-99160497D01*
X125316116Y-99273450D01*
X125323858Y-99284972D01*
X125357238Y-99315345D01*
X125434778Y-99385902D01*
X125434782Y-99385905D01*
X125440310Y-99390935D01*
X125446880Y-99394502D01*
X125446881Y-99394503D01*
X125572108Y-99462496D01*
X125578676Y-99466062D01*
X125632644Y-99480220D01*
X125723741Y-99504119D01*
X125723743Y-99504119D01*
X125730969Y-99506015D01*
X125808027Y-99507225D01*
X125880925Y-99508371D01*
X125880928Y-99508371D01*
X125888395Y-99508488D01*
X125895676Y-99506820D01*
X125895680Y-99506820D01*
X126034577Y-99475008D01*
X126034578Y-99475008D01*
X126041868Y-99473338D01*
X126146881Y-99420522D01*
X126202597Y-99407300D01*
X126837958Y-99407300D01*
X126897126Y-99422327D01*
X126977676Y-99466062D01*
X127031644Y-99480220D01*
X127122741Y-99504119D01*
X127122743Y-99504119D01*
X127129969Y-99506015D01*
X127207027Y-99507225D01*
X127279925Y-99508371D01*
X127279928Y-99508371D01*
X127287395Y-99508488D01*
X127294676Y-99506820D01*
X127294680Y-99506820D01*
X127433581Y-99475007D01*
X127440868Y-99473338D01*
X127581525Y-99402595D01*
X127587206Y-99397743D01*
X127587209Y-99397741D01*
X127695566Y-99305195D01*
X127695567Y-99305194D01*
X127701248Y-99300342D01*
X127712293Y-99284972D01*
X127732698Y-99256575D01*
X127793124Y-99172483D01*
X127851850Y-99026398D01*
X127853693Y-99013449D01*
X127873462Y-98874544D01*
X127873462Y-98874540D01*
X127874034Y-98870523D01*
X127874178Y-98856800D01*
X127855263Y-98700494D01*
X127799610Y-98553212D01*
X127791237Y-98541029D01*
X127714668Y-98429621D01*
X127714665Y-98429618D01*
X127710431Y-98423457D01*
X127592876Y-98318719D01*
X127453731Y-98245045D01*
X127301028Y-98206689D01*
X127219229Y-98206261D01*
X127151058Y-98205904D01*
X127151057Y-98205904D01*
X127143584Y-98205865D01*
X127136321Y-98207609D01*
X127136318Y-98207609D01*
X127067036Y-98224243D01*
X126990488Y-98242620D01*
X126925318Y-98276257D01*
X126893868Y-98292489D01*
X126836996Y-98306300D01*
X126201224Y-98306300D01*
X126143201Y-98291887D01*
X126061343Y-98248545D01*
X126061337Y-98248543D01*
X126054731Y-98245045D01*
X125902028Y-98206689D01*
X125820229Y-98206261D01*
X125752058Y-98205904D01*
X125752057Y-98205904D01*
X125744584Y-98205865D01*
X125737321Y-98207609D01*
X125737318Y-98207609D01*
X125668036Y-98224243D01*
X125591488Y-98242620D01*
X125451579Y-98314832D01*
X125332934Y-98418333D01*
X125242401Y-98547148D01*
X125185209Y-98693839D01*
X125164658Y-98849938D01*
X106697422Y-98849938D01*
X106653426Y-93922338D01*
X141940358Y-93922338D01*
X141941178Y-93929766D01*
X141941178Y-93929768D01*
X141943074Y-93946944D01*
X141957635Y-94078833D01*
X142011743Y-94226690D01*
X142015915Y-94232898D01*
X142024020Y-94244960D01*
X142045100Y-94314122D01*
X142045100Y-95844643D01*
X142044991Y-95849835D01*
X142042390Y-95911894D01*
X142044321Y-95920125D01*
X142044321Y-95920129D01*
X142052347Y-95954347D01*
X142054476Y-95965832D01*
X142060394Y-96009032D01*
X142063751Y-96016789D01*
X142066434Y-96022989D01*
X142073358Y-96043925D01*
X142076832Y-96058736D01*
X142088821Y-96080544D01*
X142097838Y-96096946D01*
X142102976Y-96107435D01*
X142116937Y-96139697D01*
X142116940Y-96139702D01*
X142120295Y-96147455D01*
X142125612Y-96154021D01*
X142125613Y-96154023D01*
X142129867Y-96159276D01*
X142142157Y-96177565D01*
X142149493Y-96190907D01*
X142149436Y-96190938D01*
X142161387Y-96213942D01*
X142214943Y-96360290D01*
X142302758Y-96490972D01*
X142324983Y-96511195D01*
X142413678Y-96591902D01*
X142413682Y-96591905D01*
X142419210Y-96596935D01*
X142557576Y-96672062D01*
X142659831Y-96698888D01*
X142702641Y-96710119D01*
X142702643Y-96710119D01*
X142709869Y-96712015D01*
X142786927Y-96713225D01*
X142859825Y-96714371D01*
X142859828Y-96714371D01*
X142867295Y-96714488D01*
X142874576Y-96712820D01*
X142874580Y-96712820D01*
X143013481Y-96681007D01*
X143020768Y-96679338D01*
X143161425Y-96608595D01*
X143167106Y-96603743D01*
X143167109Y-96603741D01*
X143275466Y-96511195D01*
X143275467Y-96511194D01*
X143281148Y-96506342D01*
X143292193Y-96490972D01*
X143312598Y-96462575D01*
X143373024Y-96378483D01*
X143431750Y-96232398D01*
X143434377Y-96213942D01*
X143453362Y-96080544D01*
X143453362Y-96080540D01*
X143453934Y-96076523D01*
X143454078Y-96062800D01*
X143450490Y-96033150D01*
X143436062Y-95913919D01*
X143436061Y-95913915D01*
X143435163Y-95906494D01*
X143379510Y-95759212D01*
X143375273Y-95753047D01*
X143294568Y-95635621D01*
X143294565Y-95635618D01*
X143290331Y-95629457D01*
X143284749Y-95624483D01*
X143284744Y-95624478D01*
X143187612Y-95537937D01*
X143150652Y-95478643D01*
X143146100Y-95445354D01*
X143146100Y-94317830D01*
X143164982Y-94259220D01*
X143161861Y-94257504D01*
X143165464Y-94250950D01*
X143169824Y-94244883D01*
X143228550Y-94098798D01*
X143230393Y-94085849D01*
X143250162Y-93946944D01*
X143250162Y-93946940D01*
X143250734Y-93942923D01*
X143250878Y-93929200D01*
X143231963Y-93772894D01*
X143176310Y-93625612D01*
X143167937Y-93613429D01*
X143091368Y-93502021D01*
X143091365Y-93502018D01*
X143087131Y-93495857D01*
X142969576Y-93391119D01*
X142830431Y-93317445D01*
X142677728Y-93279089D01*
X142595929Y-93278661D01*
X142527758Y-93278304D01*
X142527757Y-93278304D01*
X142520284Y-93278265D01*
X142513021Y-93280009D01*
X142513018Y-93280009D01*
X142443736Y-93296643D01*
X142367188Y-93315020D01*
X142227279Y-93387232D01*
X142108634Y-93490733D01*
X142018101Y-93619548D01*
X141960909Y-93766239D01*
X141940358Y-93922338D01*
X106653426Y-93922338D01*
X106568202Y-84377302D01*
X106561884Y-83669662D01*
X107518297Y-83669662D01*
X107547934Y-83842140D01*
X107616454Y-84003173D01*
X107620721Y-84008971D01*
X107620722Y-84008973D01*
X107677892Y-84086657D01*
X107720183Y-84144124D01*
X107725674Y-84148789D01*
X107725675Y-84148790D01*
X107848061Y-84252765D01*
X107848064Y-84252767D01*
X107853555Y-84257432D01*
X107859972Y-84260709D01*
X107859974Y-84260710D01*
X107926416Y-84294637D01*
X108009416Y-84337019D01*
X108016412Y-84338731D01*
X108016415Y-84338732D01*
X108087563Y-84356141D01*
X108179406Y-84378615D01*
X108184914Y-84378957D01*
X108184916Y-84378957D01*
X108188544Y-84379182D01*
X108188548Y-84379182D01*
X108190448Y-84379300D01*
X108316622Y-84379300D01*
X108446628Y-84364143D01*
X108453395Y-84361687D01*
X108453398Y-84361686D01*
X108604357Y-84306890D01*
X108604358Y-84306889D01*
X108611131Y-84304431D01*
X108757485Y-84208477D01*
X108762437Y-84203249D01*
X108762440Y-84203247D01*
X108872887Y-84086657D01*
X108872889Y-84086655D01*
X108877840Y-84081428D01*
X108881456Y-84075203D01*
X108881458Y-84075200D01*
X108962122Y-83936325D01*
X108965739Y-83930098D01*
X109016467Y-83762607D01*
X109027303Y-83587938D01*
X108997666Y-83415460D01*
X108929146Y-83254427D01*
X108876140Y-83182400D01*
X108829688Y-83119279D01*
X108829686Y-83119277D01*
X108825417Y-83113476D01*
X108745016Y-83045170D01*
X108697539Y-83004835D01*
X108697536Y-83004833D01*
X108692045Y-83000168D01*
X108685628Y-82996891D01*
X108685626Y-82996890D01*
X108595188Y-82950710D01*
X108536184Y-82920581D01*
X108529188Y-82918869D01*
X108529185Y-82918868D01*
X108458037Y-82901459D01*
X108366194Y-82878985D01*
X108360686Y-82878643D01*
X108360684Y-82878643D01*
X108357056Y-82878418D01*
X108357052Y-82878418D01*
X108355152Y-82878300D01*
X108228978Y-82878300D01*
X108098972Y-82893457D01*
X108092205Y-82895913D01*
X108092202Y-82895914D01*
X107941243Y-82950710D01*
X107934469Y-82953169D01*
X107788115Y-83049123D01*
X107783163Y-83054351D01*
X107783160Y-83054353D01*
X107721655Y-83119279D01*
X107667760Y-83176172D01*
X107664144Y-83182397D01*
X107664142Y-83182400D01*
X107625675Y-83248627D01*
X107579861Y-83327502D01*
X107529133Y-83494993D01*
X107518297Y-83669662D01*
X106561884Y-83669662D01*
X106535098Y-80669662D01*
X107518297Y-80669662D01*
X107547934Y-80842140D01*
X107616454Y-81003173D01*
X107620721Y-81008971D01*
X107620722Y-81008973D01*
X107677892Y-81086657D01*
X107720183Y-81144124D01*
X107725674Y-81148789D01*
X107725675Y-81148790D01*
X107848061Y-81252765D01*
X107848064Y-81252767D01*
X107853555Y-81257432D01*
X107859972Y-81260709D01*
X107859974Y-81260710D01*
X107926416Y-81294637D01*
X108009416Y-81337019D01*
X108016412Y-81338731D01*
X108016415Y-81338732D01*
X108087563Y-81356141D01*
X108179406Y-81378615D01*
X108184914Y-81378957D01*
X108184916Y-81378957D01*
X108188544Y-81379182D01*
X108188548Y-81379182D01*
X108190448Y-81379300D01*
X108316622Y-81379300D01*
X108446628Y-81364143D01*
X108453395Y-81361687D01*
X108453398Y-81361686D01*
X108604357Y-81306890D01*
X108604358Y-81306889D01*
X108611131Y-81304431D01*
X108757485Y-81208477D01*
X108762437Y-81203249D01*
X108762440Y-81203247D01*
X108872887Y-81086657D01*
X108872889Y-81086655D01*
X108877840Y-81081428D01*
X108881456Y-81075203D01*
X108881458Y-81075200D01*
X108962122Y-80936325D01*
X108965739Y-80930098D01*
X109016467Y-80762607D01*
X109027303Y-80587938D01*
X108997666Y-80415460D01*
X108992533Y-80403395D01*
X108949023Y-80301142D01*
X108929146Y-80254427D01*
X108873898Y-80179354D01*
X108829688Y-80119279D01*
X108829686Y-80119277D01*
X108825417Y-80113476D01*
X108732021Y-80034130D01*
X108697539Y-80004835D01*
X108697536Y-80004833D01*
X108692045Y-80000168D01*
X108685628Y-79996891D01*
X108685626Y-79996890D01*
X108595188Y-79950710D01*
X108536184Y-79920581D01*
X108529188Y-79918869D01*
X108529185Y-79918868D01*
X108458037Y-79901459D01*
X108366194Y-79878985D01*
X108360686Y-79878643D01*
X108360684Y-79878643D01*
X108357056Y-79878418D01*
X108357052Y-79878418D01*
X108355152Y-79878300D01*
X108228978Y-79878300D01*
X108098972Y-79893457D01*
X108092205Y-79895913D01*
X108092202Y-79895914D01*
X107941243Y-79950710D01*
X107934469Y-79953169D01*
X107788115Y-80049123D01*
X107783163Y-80054351D01*
X107783160Y-80054353D01*
X107721655Y-80119279D01*
X107667760Y-80176172D01*
X107664144Y-80182397D01*
X107664142Y-80182400D01*
X107625675Y-80248627D01*
X107579861Y-80327502D01*
X107529133Y-80494993D01*
X107518297Y-80669662D01*
X106535098Y-80669662D01*
X106516447Y-78580738D01*
X112679558Y-78580738D01*
X112696835Y-78737233D01*
X112750943Y-78885090D01*
X112838758Y-79015772D01*
X112893493Y-79065577D01*
X112949678Y-79116702D01*
X112949682Y-79116705D01*
X112955210Y-79121735D01*
X113093576Y-79196862D01*
X113158656Y-79213936D01*
X113214870Y-79246195D01*
X113942239Y-79973563D01*
X113971005Y-80018629D01*
X114020943Y-80155090D01*
X114108758Y-80285772D01*
X114154619Y-80327502D01*
X114219678Y-80386702D01*
X114219682Y-80386705D01*
X114225210Y-80391735D01*
X114231780Y-80395302D01*
X114231781Y-80395303D01*
X114281993Y-80422566D01*
X114363576Y-80466862D01*
X114444516Y-80488096D01*
X114508641Y-80504919D01*
X114508643Y-80504919D01*
X114515869Y-80506815D01*
X114592927Y-80508025D01*
X114665825Y-80509171D01*
X114665828Y-80509171D01*
X114673295Y-80509288D01*
X114680576Y-80507620D01*
X114680580Y-80507620D01*
X114819481Y-80475807D01*
X114826768Y-80474138D01*
X114967425Y-80403395D01*
X114973106Y-80398543D01*
X114973109Y-80398541D01*
X115081466Y-80305995D01*
X115081467Y-80305994D01*
X115087148Y-80301142D01*
X115098193Y-80285772D01*
X115124884Y-80248627D01*
X115179024Y-80173283D01*
X115237750Y-80027198D01*
X115238803Y-80019801D01*
X115259362Y-79875344D01*
X115259362Y-79875340D01*
X115259934Y-79871323D01*
X115260078Y-79857600D01*
X115241163Y-79701294D01*
X115185510Y-79554012D01*
X115181273Y-79547847D01*
X115100568Y-79430421D01*
X115100565Y-79430418D01*
X115096331Y-79424257D01*
X114978776Y-79319519D01*
X114839631Y-79245845D01*
X114781979Y-79231364D01*
X114724506Y-79198781D01*
X113998632Y-78472908D01*
X113970318Y-78429058D01*
X113918154Y-78291008D01*
X113918152Y-78291005D01*
X113915510Y-78284012D01*
X113907137Y-78271829D01*
X113830568Y-78160421D01*
X113830565Y-78160418D01*
X113826331Y-78154257D01*
X113708776Y-78049519D01*
X113569631Y-77975845D01*
X113416928Y-77937489D01*
X113335129Y-77937061D01*
X113266958Y-77936704D01*
X113266957Y-77936704D01*
X113259484Y-77936665D01*
X113252221Y-77938409D01*
X113252218Y-77938409D01*
X113182936Y-77955042D01*
X113106388Y-77973420D01*
X112966479Y-78045632D01*
X112847834Y-78149133D01*
X112757301Y-78277948D01*
X112700109Y-78424639D01*
X112679558Y-78580738D01*
X106516447Y-78580738D01*
X106472836Y-73696371D01*
X106474715Y-73673731D01*
X106475252Y-73670686D01*
X106475252Y-73670684D01*
X106477136Y-73660000D01*
X106475252Y-73649315D01*
X106475252Y-73639661D01*
X106474425Y-73625720D01*
X106476219Y-73593789D01*
X107815996Y-73593789D01*
X107824913Y-73831295D01*
X107825990Y-73836430D01*
X107825991Y-73836435D01*
X107872639Y-74058758D01*
X107873719Y-74063904D01*
X107961020Y-74284963D01*
X107963741Y-74289447D01*
X107963743Y-74289451D01*
X108031233Y-74400670D01*
X108084319Y-74488153D01*
X108240090Y-74667664D01*
X108423880Y-74818362D01*
X108428441Y-74820958D01*
X108428442Y-74820959D01*
X108625875Y-74933345D01*
X108625880Y-74933347D01*
X108630433Y-74935939D01*
X108853844Y-75017034D01*
X109087725Y-75059326D01*
X109112619Y-75060500D01*
X109279680Y-75060500D01*
X109282296Y-75060278D01*
X109282297Y-75060278D01*
X109451590Y-75045913D01*
X109456823Y-75045469D01*
X109686874Y-74985760D01*
X109903576Y-74888143D01*
X110100732Y-74755409D01*
X110272705Y-74591355D01*
X110414579Y-74400670D01*
X110416958Y-74395991D01*
X110519913Y-74193493D01*
X110519915Y-74193488D01*
X110522295Y-74188807D01*
X110592775Y-73961824D01*
X110595693Y-73939812D01*
X110623315Y-73731412D01*
X110623315Y-73731408D01*
X110624004Y-73726211D01*
X110616247Y-73519612D01*
X110615284Y-73493949D01*
X110615284Y-73493948D01*
X110615087Y-73488705D01*
X110611701Y-73472563D01*
X110567361Y-73261242D01*
X110567360Y-73261239D01*
X110566281Y-73256096D01*
X110542334Y-73195457D01*
X110488506Y-73059159D01*
X116723544Y-73059159D01*
X116755454Y-73184802D01*
X116759227Y-73195457D01*
X116844883Y-73381259D01*
X116850539Y-73391055D01*
X116968616Y-73558131D01*
X116975965Y-73566735D01*
X117122508Y-73709491D01*
X117131311Y-73716619D01*
X117301406Y-73830273D01*
X117311364Y-73835680D01*
X117499324Y-73916434D01*
X117510096Y-73919934D01*
X117601809Y-73940687D01*
X117615662Y-73939812D01*
X117619200Y-73930563D01*
X117619200Y-73929693D01*
X118119200Y-73929693D01*
X118123103Y-73942987D01*
X118136881Y-73944960D01*
X118139041Y-73944646D01*
X118150064Y-73942000D01*
X118343773Y-73876245D01*
X118354125Y-73871636D01*
X118532626Y-73771671D01*
X118541945Y-73765266D01*
X118699243Y-73634442D01*
X118707242Y-73626443D01*
X118838066Y-73469145D01*
X118844471Y-73459826D01*
X118880641Y-73395239D01*
X118930573Y-73346366D01*
X118999001Y-73332246D01*
X119064200Y-73357362D01*
X119086007Y-73378803D01*
X119164089Y-73477318D01*
X119309775Y-73601307D01*
X119315073Y-73604268D01*
X119464220Y-73687623D01*
X119476770Y-73694637D01*
X119658712Y-73753754D01*
X119664730Y-73754472D01*
X119664732Y-73754472D01*
X119793959Y-73769881D01*
X119848672Y-73776405D01*
X119854716Y-73775940D01*
X119854717Y-73775940D01*
X119913250Y-73771436D01*
X120039413Y-73761728D01*
X120166621Y-73726211D01*
X120217831Y-73711913D01*
X120217833Y-73711912D01*
X120223672Y-73710282D01*
X120394428Y-73624027D01*
X120545179Y-73506248D01*
X120549135Y-73501664D01*
X120549139Y-73501661D01*
X120666220Y-73366020D01*
X120670182Y-73361430D01*
X120675325Y-73352378D01*
X120763013Y-73198018D01*
X120813242Y-73149451D01*
X120881755Y-73135749D01*
X120946799Y-73161264D01*
X120981117Y-73202586D01*
X121045260Y-73327393D01*
X121049026Y-73332145D01*
X121049027Y-73332146D01*
X121130108Y-73434444D01*
X121164089Y-73477318D01*
X121309775Y-73601307D01*
X121315073Y-73604268D01*
X121464220Y-73687623D01*
X121476770Y-73694637D01*
X121658712Y-73753754D01*
X121664730Y-73754472D01*
X121664732Y-73754472D01*
X121793959Y-73769881D01*
X121848672Y-73776405D01*
X121854716Y-73775940D01*
X121854717Y-73775940D01*
X121913250Y-73771436D01*
X122039413Y-73761728D01*
X122166621Y-73726211D01*
X122217831Y-73711913D01*
X122217833Y-73711912D01*
X122223672Y-73710282D01*
X122394428Y-73624027D01*
X122545179Y-73506248D01*
X122549135Y-73501664D01*
X122549139Y-73501661D01*
X122666218Y-73366023D01*
X122666220Y-73366019D01*
X122670182Y-73361430D01*
X122670244Y-73361483D01*
X122723099Y-73319534D01*
X122792622Y-73312581D01*
X122854867Y-73344319D01*
X122890072Y-73404670D01*
X122893700Y-73434444D01*
X122893700Y-73516046D01*
X122896818Y-73542246D01*
X122942261Y-73644553D01*
X123021487Y-73723641D01*
X123031958Y-73728270D01*
X123031959Y-73728271D01*
X123115347Y-73765137D01*
X123115349Y-73765138D01*
X123123873Y-73768906D01*
X123149554Y-73771900D01*
X124588846Y-73771900D01*
X124592500Y-73771465D01*
X124592502Y-73771465D01*
X124597466Y-73770874D01*
X124615046Y-73768782D01*
X124717353Y-73723339D01*
X124796441Y-73644113D01*
X124801071Y-73633641D01*
X124837937Y-73550253D01*
X124837938Y-73550251D01*
X124841706Y-73541727D01*
X124844700Y-73516046D01*
X124844700Y-73059159D01*
X126323544Y-73059159D01*
X126355454Y-73184802D01*
X126359227Y-73195457D01*
X126444883Y-73381259D01*
X126450539Y-73391055D01*
X126568616Y-73558131D01*
X126575965Y-73566735D01*
X126722508Y-73709491D01*
X126731311Y-73716619D01*
X126901406Y-73830273D01*
X126911364Y-73835680D01*
X127099324Y-73916434D01*
X127110096Y-73919934D01*
X127201809Y-73940687D01*
X127215662Y-73939812D01*
X127219200Y-73930563D01*
X127219200Y-73929693D01*
X127719200Y-73929693D01*
X127723103Y-73942987D01*
X127736881Y-73944960D01*
X127739041Y-73944646D01*
X127750064Y-73942000D01*
X127943773Y-73876245D01*
X127954125Y-73871636D01*
X128132626Y-73771671D01*
X128141945Y-73765266D01*
X128299243Y-73634442D01*
X128307242Y-73626443D01*
X128438066Y-73469145D01*
X128444471Y-73459826D01*
X128480641Y-73395239D01*
X128530573Y-73346366D01*
X128599001Y-73332246D01*
X128664200Y-73357362D01*
X128686007Y-73378803D01*
X128764089Y-73477318D01*
X128909775Y-73601307D01*
X128915073Y-73604268D01*
X129064220Y-73687623D01*
X129076770Y-73694637D01*
X129258712Y-73753754D01*
X129264730Y-73754472D01*
X129264732Y-73754472D01*
X129393959Y-73769881D01*
X129448672Y-73776405D01*
X129454716Y-73775940D01*
X129454717Y-73775940D01*
X129513250Y-73771436D01*
X129639413Y-73761728D01*
X129766621Y-73726211D01*
X129817831Y-73711913D01*
X129817833Y-73711912D01*
X129823672Y-73710282D01*
X129994428Y-73624027D01*
X130145179Y-73506248D01*
X130149135Y-73501664D01*
X130149139Y-73501661D01*
X130266220Y-73366020D01*
X130270182Y-73361430D01*
X130275325Y-73352378D01*
X130363013Y-73198018D01*
X130413242Y-73149451D01*
X130481755Y-73135749D01*
X130546799Y-73161264D01*
X130581117Y-73202586D01*
X130645260Y-73327393D01*
X130649026Y-73332145D01*
X130649027Y-73332146D01*
X130730108Y-73434444D01*
X130764089Y-73477318D01*
X130909775Y-73601307D01*
X130915073Y-73604268D01*
X131064220Y-73687623D01*
X131076770Y-73694637D01*
X131258712Y-73753754D01*
X131264730Y-73754472D01*
X131264732Y-73754472D01*
X131393959Y-73769881D01*
X131448672Y-73776405D01*
X131454716Y-73775940D01*
X131454717Y-73775940D01*
X131513250Y-73771436D01*
X131639413Y-73761728D01*
X131766621Y-73726211D01*
X131817831Y-73711913D01*
X131817833Y-73711912D01*
X131823672Y-73710282D01*
X131994428Y-73624027D01*
X132145179Y-73506248D01*
X132149135Y-73501664D01*
X132149139Y-73501661D01*
X132266218Y-73366023D01*
X132266220Y-73366019D01*
X132270182Y-73361430D01*
X132270244Y-73361483D01*
X132323099Y-73319534D01*
X132392622Y-73312581D01*
X132454867Y-73344319D01*
X132490072Y-73404670D01*
X132493700Y-73434444D01*
X132493700Y-73516046D01*
X132496818Y-73542246D01*
X132542261Y-73644553D01*
X132621487Y-73723641D01*
X132631958Y-73728270D01*
X132631959Y-73728271D01*
X132715347Y-73765137D01*
X132715349Y-73765138D01*
X132723873Y-73768906D01*
X132749554Y-73771900D01*
X134188846Y-73771900D01*
X134192500Y-73771465D01*
X134192502Y-73771465D01*
X134197466Y-73770874D01*
X134215046Y-73768782D01*
X134317353Y-73723339D01*
X134396441Y-73644113D01*
X134401071Y-73633641D01*
X134418690Y-73593789D01*
X140835996Y-73593789D01*
X140844913Y-73831295D01*
X140845990Y-73836430D01*
X140845991Y-73836435D01*
X140892639Y-74058758D01*
X140893719Y-74063904D01*
X140981020Y-74284963D01*
X140983741Y-74289447D01*
X140983743Y-74289451D01*
X141051233Y-74400670D01*
X141104319Y-74488153D01*
X141260090Y-74667664D01*
X141443880Y-74818362D01*
X141448441Y-74820958D01*
X141448442Y-74820959D01*
X141645875Y-74933345D01*
X141645880Y-74933347D01*
X141650433Y-74935939D01*
X141873844Y-75017034D01*
X142107725Y-75059326D01*
X142132619Y-75060500D01*
X142299680Y-75060500D01*
X142302296Y-75060278D01*
X142302297Y-75060278D01*
X142471590Y-75045913D01*
X142476823Y-75045469D01*
X142706874Y-74985760D01*
X142923576Y-74888143D01*
X143120732Y-74755409D01*
X143292705Y-74591355D01*
X143434579Y-74400670D01*
X143436958Y-74395991D01*
X143539913Y-74193493D01*
X143539915Y-74193488D01*
X143542295Y-74188807D01*
X143612775Y-73961824D01*
X143615693Y-73939812D01*
X143643315Y-73731412D01*
X143643315Y-73731408D01*
X143644004Y-73726211D01*
X143636247Y-73519612D01*
X143635284Y-73493949D01*
X143635284Y-73493948D01*
X143635087Y-73488705D01*
X143631701Y-73472563D01*
X143587361Y-73261242D01*
X143587360Y-73261239D01*
X143586281Y-73256096D01*
X143562334Y-73195457D01*
X143507058Y-73055492D01*
X143498980Y-73035037D01*
X143431607Y-72924009D01*
X143378408Y-72836341D01*
X143375681Y-72831847D01*
X143219910Y-72652336D01*
X143036120Y-72501638D01*
X142976858Y-72467904D01*
X142834125Y-72386655D01*
X142834120Y-72386653D01*
X142829567Y-72384061D01*
X142606156Y-72302966D01*
X142372275Y-72260674D01*
X142347381Y-72259500D01*
X142180320Y-72259500D01*
X142177704Y-72259722D01*
X142177703Y-72259722D01*
X142166484Y-72260674D01*
X142003177Y-72274531D01*
X141773126Y-72334240D01*
X141556424Y-72431857D01*
X141359268Y-72564591D01*
X141187295Y-72728645D01*
X141045421Y-72919330D01*
X141043042Y-72924008D01*
X141043042Y-72924009D01*
X140971751Y-73064230D01*
X140937705Y-73131193D01*
X140936146Y-73136213D01*
X140936145Y-73136216D01*
X140875276Y-73332246D01*
X140867225Y-73358176D01*
X140866534Y-73363386D01*
X140866534Y-73363388D01*
X140839582Y-73566735D01*
X140835996Y-73593789D01*
X134418690Y-73593789D01*
X134437937Y-73550253D01*
X134437938Y-73550251D01*
X134441706Y-73541727D01*
X134444700Y-73516046D01*
X134444700Y-72076754D01*
X134441582Y-72050554D01*
X134396139Y-71948247D01*
X134316913Y-71869159D01*
X134306442Y-71864530D01*
X134306441Y-71864529D01*
X134223053Y-71827663D01*
X134223051Y-71827662D01*
X134214527Y-71823894D01*
X134188846Y-71820900D01*
X132749554Y-71820900D01*
X132745900Y-71821335D01*
X132745898Y-71821335D01*
X132740934Y-71821926D01*
X132723354Y-71824018D01*
X132621047Y-71869461D01*
X132541959Y-71948687D01*
X132537330Y-71959158D01*
X132537329Y-71959159D01*
X132524743Y-71987629D01*
X132496694Y-72051073D01*
X132493700Y-72076754D01*
X132493700Y-72160823D01*
X132474015Y-72227862D01*
X132421211Y-72273617D01*
X132352053Y-72283561D01*
X132288497Y-72254536D01*
X132273607Y-72239194D01*
X132272602Y-72237961D01*
X132164735Y-72105703D01*
X132040522Y-72002945D01*
X132022008Y-71987629D01*
X132022006Y-71987628D01*
X132017332Y-71983761D01*
X131849051Y-71892771D01*
X131666301Y-71836201D01*
X131476043Y-71816204D01*
X131470010Y-71816753D01*
X131470006Y-71816753D01*
X131291567Y-71832992D01*
X131291565Y-71832992D01*
X131285525Y-71833542D01*
X131279706Y-71835255D01*
X131279704Y-71835255D01*
X131107818Y-71885844D01*
X131107813Y-71885846D01*
X131102003Y-71887556D01*
X131096633Y-71890363D01*
X131096629Y-71890365D01*
X131013162Y-71934001D01*
X130932468Y-71976187D01*
X130899188Y-72002945D01*
X130802810Y-72080435D01*
X130783376Y-72096060D01*
X130660407Y-72242608D01*
X130578152Y-72392229D01*
X130577315Y-72393752D01*
X130527769Y-72443016D01*
X130459453Y-72457672D01*
X130394059Y-72433068D01*
X130359168Y-72392229D01*
X130285646Y-72253955D01*
X130164735Y-72105703D01*
X130040522Y-72002945D01*
X130022008Y-71987629D01*
X130022006Y-71987628D01*
X130017332Y-71983761D01*
X129849051Y-71892771D01*
X129666301Y-71836201D01*
X129476043Y-71816204D01*
X129470010Y-71816753D01*
X129470006Y-71816753D01*
X129291567Y-71832992D01*
X129291565Y-71832992D01*
X129285525Y-71833542D01*
X129279706Y-71835255D01*
X129279704Y-71835255D01*
X129107818Y-71885844D01*
X129107813Y-71885846D01*
X129102003Y-71887556D01*
X129096633Y-71890363D01*
X129096629Y-71890365D01*
X129013162Y-71934001D01*
X128932468Y-71976187D01*
X128899188Y-72002945D01*
X128802810Y-72080435D01*
X128783376Y-72096060D01*
X128730784Y-72158736D01*
X128685496Y-72212708D01*
X128627325Y-72251410D01*
X128557464Y-72252518D01*
X128498094Y-72215681D01*
X128479294Y-72187845D01*
X128477858Y-72184932D01*
X128471941Y-72175277D01*
X128349535Y-72011355D01*
X128341963Y-72002945D01*
X128191734Y-71864076D01*
X128182749Y-71857181D01*
X128009733Y-71748016D01*
X127999642Y-71742875D01*
X127809636Y-71667070D01*
X127798764Y-71663849D01*
X127736688Y-71651502D01*
X127724016Y-71652636D01*
X127719200Y-71667548D01*
X127719200Y-73929693D01*
X127219200Y-73929693D01*
X127219200Y-73064230D01*
X127214796Y-73049231D01*
X127213426Y-73048044D01*
X127205868Y-73046400D01*
X126338134Y-73046400D01*
X126324817Y-73050310D01*
X126323544Y-73059159D01*
X124844700Y-73059159D01*
X124844700Y-72543251D01*
X126321471Y-72543251D01*
X126328094Y-72546400D01*
X127201370Y-72546400D01*
X127216369Y-72541996D01*
X127217556Y-72540626D01*
X127219200Y-72533068D01*
X127219200Y-71664883D01*
X127215454Y-71652125D01*
X127200773Y-71650219D01*
X127169388Y-71655612D01*
X127158452Y-71658543D01*
X126966512Y-71729353D01*
X126956301Y-71734223D01*
X126780477Y-71838826D01*
X126771319Y-71845480D01*
X126617506Y-71980371D01*
X126609716Y-71988580D01*
X126483059Y-72149243D01*
X126476894Y-72158736D01*
X126381637Y-72339792D01*
X126377304Y-72350253D01*
X126321686Y-72529373D01*
X126321471Y-72543251D01*
X124844700Y-72543251D01*
X124844700Y-72076754D01*
X124841582Y-72050554D01*
X124796139Y-71948247D01*
X124716913Y-71869159D01*
X124706442Y-71864530D01*
X124706441Y-71864529D01*
X124623053Y-71827663D01*
X124623051Y-71827662D01*
X124614527Y-71823894D01*
X124588846Y-71820900D01*
X123149554Y-71820900D01*
X123145900Y-71821335D01*
X123145898Y-71821335D01*
X123140934Y-71821926D01*
X123123354Y-71824018D01*
X123021047Y-71869461D01*
X122941959Y-71948687D01*
X122937330Y-71959158D01*
X122937329Y-71959159D01*
X122924743Y-71987629D01*
X122896694Y-72051073D01*
X122893700Y-72076754D01*
X122893700Y-72160823D01*
X122874015Y-72227862D01*
X122821211Y-72273617D01*
X122752053Y-72283561D01*
X122688497Y-72254536D01*
X122673607Y-72239194D01*
X122672602Y-72237961D01*
X122564735Y-72105703D01*
X122440522Y-72002945D01*
X122422008Y-71987629D01*
X122422006Y-71987628D01*
X122417332Y-71983761D01*
X122249051Y-71892771D01*
X122066301Y-71836201D01*
X121876043Y-71816204D01*
X121870010Y-71816753D01*
X121870006Y-71816753D01*
X121691567Y-71832992D01*
X121691565Y-71832992D01*
X121685525Y-71833542D01*
X121679706Y-71835255D01*
X121679704Y-71835255D01*
X121507818Y-71885844D01*
X121507813Y-71885846D01*
X121502003Y-71887556D01*
X121496633Y-71890363D01*
X121496629Y-71890365D01*
X121413162Y-71934001D01*
X121332468Y-71976187D01*
X121299188Y-72002945D01*
X121202810Y-72080435D01*
X121183376Y-72096060D01*
X121060407Y-72242608D01*
X120978152Y-72392229D01*
X120977315Y-72393752D01*
X120927769Y-72443016D01*
X120859453Y-72457672D01*
X120794059Y-72433068D01*
X120759168Y-72392229D01*
X120685646Y-72253955D01*
X120564735Y-72105703D01*
X120440522Y-72002945D01*
X120422008Y-71987629D01*
X120422006Y-71987628D01*
X120417332Y-71983761D01*
X120249051Y-71892771D01*
X120066301Y-71836201D01*
X119876043Y-71816204D01*
X119870010Y-71816753D01*
X119870006Y-71816753D01*
X119691567Y-71832992D01*
X119691565Y-71832992D01*
X119685525Y-71833542D01*
X119679706Y-71835255D01*
X119679704Y-71835255D01*
X119507818Y-71885844D01*
X119507813Y-71885846D01*
X119502003Y-71887556D01*
X119496633Y-71890363D01*
X119496629Y-71890365D01*
X119413162Y-71934001D01*
X119332468Y-71976187D01*
X119299188Y-72002945D01*
X119202810Y-72080435D01*
X119183376Y-72096060D01*
X119130784Y-72158736D01*
X119085496Y-72212708D01*
X119027325Y-72251410D01*
X118957464Y-72252518D01*
X118898094Y-72215681D01*
X118879294Y-72187845D01*
X118877858Y-72184932D01*
X118871941Y-72175277D01*
X118749535Y-72011355D01*
X118741963Y-72002945D01*
X118591734Y-71864076D01*
X118582749Y-71857181D01*
X118409733Y-71748016D01*
X118399642Y-71742875D01*
X118209636Y-71667070D01*
X118198764Y-71663849D01*
X118136688Y-71651502D01*
X118124016Y-71652636D01*
X118119200Y-71667548D01*
X118119200Y-73929693D01*
X117619200Y-73929693D01*
X117619200Y-73064230D01*
X117614796Y-73049231D01*
X117613426Y-73048044D01*
X117605868Y-73046400D01*
X116738134Y-73046400D01*
X116724817Y-73050310D01*
X116723544Y-73059159D01*
X110488506Y-73059159D01*
X110487058Y-73055492D01*
X110478980Y-73035037D01*
X110411607Y-72924009D01*
X110358408Y-72836341D01*
X110355681Y-72831847D01*
X110199910Y-72652336D01*
X110066871Y-72543251D01*
X116721471Y-72543251D01*
X116728094Y-72546400D01*
X117601370Y-72546400D01*
X117616369Y-72541996D01*
X117617556Y-72540626D01*
X117619200Y-72533068D01*
X117619200Y-71664883D01*
X117615454Y-71652125D01*
X117600773Y-71650219D01*
X117569388Y-71655612D01*
X117558452Y-71658543D01*
X117366512Y-71729353D01*
X117356301Y-71734223D01*
X117180477Y-71838826D01*
X117171319Y-71845480D01*
X117017506Y-71980371D01*
X117009716Y-71988580D01*
X116883059Y-72149243D01*
X116876894Y-72158736D01*
X116781637Y-72339792D01*
X116777304Y-72350253D01*
X116721686Y-72529373D01*
X116721471Y-72543251D01*
X110066871Y-72543251D01*
X110016120Y-72501638D01*
X109956858Y-72467904D01*
X109814125Y-72386655D01*
X109814120Y-72386653D01*
X109809567Y-72384061D01*
X109586156Y-72302966D01*
X109352275Y-72260674D01*
X109327381Y-72259500D01*
X109160320Y-72259500D01*
X109157704Y-72259722D01*
X109157703Y-72259722D01*
X109146484Y-72260674D01*
X108983177Y-72274531D01*
X108753126Y-72334240D01*
X108536424Y-72431857D01*
X108339268Y-72564591D01*
X108167295Y-72728645D01*
X108025421Y-72919330D01*
X108023042Y-72924008D01*
X108023042Y-72924009D01*
X107951751Y-73064230D01*
X107917705Y-73131193D01*
X107916146Y-73136213D01*
X107916145Y-73136216D01*
X107855276Y-73332246D01*
X107847225Y-73358176D01*
X107846534Y-73363386D01*
X107846534Y-73363388D01*
X107819582Y-73566735D01*
X107815996Y-73593789D01*
X106476219Y-73593789D01*
X106476511Y-73588588D01*
X106480384Y-73519612D01*
X106489386Y-73359330D01*
X106490943Y-73345512D01*
X106540219Y-73055492D01*
X106543313Y-73041936D01*
X106624754Y-72759247D01*
X106629347Y-72746121D01*
X106634841Y-72732859D01*
X106712074Y-72546400D01*
X106741923Y-72474339D01*
X106747956Y-72461811D01*
X106890260Y-72204331D01*
X106897659Y-72192557D01*
X107067884Y-71952648D01*
X107076553Y-71941776D01*
X107272584Y-71722417D01*
X107282417Y-71712584D01*
X107501776Y-71516553D01*
X107512648Y-71507884D01*
X107752557Y-71337659D01*
X107764331Y-71330260D01*
X108021811Y-71187956D01*
X108034339Y-71181923D01*
X108209002Y-71109575D01*
X108306125Y-71069345D01*
X108319247Y-71064754D01*
X108601936Y-70983313D01*
X108615492Y-70980219D01*
X108905512Y-70930943D01*
X108919330Y-70929386D01*
X109081527Y-70920277D01*
X109185722Y-70914425D01*
X109199661Y-70915252D01*
X109209315Y-70915252D01*
X109220000Y-70917136D01*
X109237237Y-70914096D01*
X109257809Y-70912217D01*
X142203525Y-70658789D01*
X142226008Y-70660669D01*
G37*
%TD.AperFunction*%
%TD*%
M02*
