%TF.GenerationSoftware,KiCad,Pcbnew,(6.0.7-1)-1*%
%TF.CreationDate,2022-10-07T20:30:11-05:00*%
%TF.ProjectId,KiCad,4b694361-642e-46b6-9963-61645f706362,rev?*%
%TF.SameCoordinates,Original*%
%TF.FileFunction,Soldermask,Top*%
%TF.FilePolarity,Negative*%
%FSLAX46Y46*%
G04 Gerber Fmt 4.6, Leading zero omitted, Abs format (unit mm)*
G04 Created by KiCad (PCBNEW (6.0.7-1)-1) date 2022-10-07 20:30:11*
%MOMM*%
%LPD*%
G01*
G04 APERTURE LIST*
G04 Aperture macros list*
%AMRoundRect*
0 Rectangle with rounded corners*
0 $1 Rounding radius*
0 $2 $3 $4 $5 $6 $7 $8 $9 X,Y pos of 4 corners*
0 Add a 4 corners polygon primitive as box body*
4,1,4,$2,$3,$4,$5,$6,$7,$8,$9,$2,$3,0*
0 Add four circle primitives for the rounded corners*
1,1,$1+$1,$2,$3*
1,1,$1+$1,$4,$5*
1,1,$1+$1,$6,$7*
1,1,$1+$1,$8,$9*
0 Add four rect primitives between the rounded corners*
20,1,$1+$1,$2,$3,$4,$5,0*
20,1,$1+$1,$4,$5,$6,$7,0*
20,1,$1+$1,$6,$7,$8,$9,0*
20,1,$1+$1,$8,$9,$2,$3,0*%
G04 Aperture macros list end*
%ADD10R,1.200000X1.400000*%
%ADD11R,1.550000X1.425000*%
%ADD12R,1.900000X1.000000*%
%ADD13R,1.300000X1.650000*%
%ADD14R,1.900000X1.800000*%
%ADD15R,1.380000X0.450000*%
%ADD16R,1.350000X1.350000*%
%ADD17O,1.350000X1.350000*%
%ADD18C,2.200000*%
%ADD19RoundRect,0.140000X0.170000X-0.140000X0.170000X0.140000X-0.170000X0.140000X-0.170000X-0.140000X0*%
%ADD20R,1.500000X2.000000*%
%ADD21R,3.800000X2.000000*%
%ADD22RoundRect,0.225000X-0.225000X-0.250000X0.225000X-0.250000X0.225000X0.250000X-0.225000X0.250000X0*%
%ADD23RoundRect,0.135000X0.185000X-0.135000X0.185000X0.135000X-0.185000X0.135000X-0.185000X-0.135000X0*%
%ADD24RoundRect,0.135000X0.135000X0.185000X-0.135000X0.185000X-0.135000X-0.185000X0.135000X-0.185000X0*%
%ADD25RoundRect,0.140000X-0.140000X-0.170000X0.140000X-0.170000X0.140000X0.170000X-0.140000X0.170000X0*%
%ADD26RoundRect,0.140000X0.140000X0.170000X-0.140000X0.170000X-0.140000X-0.170000X0.140000X-0.170000X0*%
%ADD27RoundRect,0.140000X-0.170000X0.140000X-0.170000X-0.140000X0.170000X-0.140000X0.170000X0.140000X0*%
%ADD28RoundRect,0.250000X0.475000X-0.250000X0.475000X0.250000X-0.475000X0.250000X-0.475000X-0.250000X0*%
%ADD29RoundRect,0.218750X-0.256250X0.218750X-0.256250X-0.218750X0.256250X-0.218750X0.256250X0.218750X0*%
%ADD30RoundRect,0.075000X-0.662500X-0.075000X0.662500X-0.075000X0.662500X0.075000X-0.662500X0.075000X0*%
%ADD31RoundRect,0.075000X-0.075000X-0.662500X0.075000X-0.662500X0.075000X0.662500X-0.075000X0.662500X0*%
%ADD32RoundRect,0.135000X-0.135000X-0.185000X0.135000X-0.185000X0.135000X0.185000X-0.135000X0.185000X0*%
%ADD33RoundRect,0.250000X-0.250000X-0.475000X0.250000X-0.475000X0.250000X0.475000X-0.250000X0.475000X0*%
%ADD34R,0.800000X1.000000*%
%ADD35C,0.900000*%
%ADD36R,1.500000X0.700000*%
G04 APERTURE END LIST*
D10*
%TO.C,Y1*%
X113062000Y-85588000D03*
X113062000Y-87788000D03*
X114762000Y-87788000D03*
X114762000Y-85588000D03*
%TD*%
D11*
%TO.C,J4*%
X139856000Y-85650500D03*
D12*
X142431000Y-86588000D03*
D11*
X139856000Y-90625500D03*
D13*
X142431000Y-91513000D03*
X142431000Y-84763000D03*
D14*
X142431000Y-89288000D03*
D15*
X139771000Y-86838000D03*
X139771000Y-87488000D03*
X139771000Y-88138000D03*
X139771000Y-88788000D03*
X139771000Y-89438000D03*
%TD*%
D16*
%TO.C,J3*%
X133469200Y-72796400D03*
D17*
X131469200Y-72796400D03*
X129469200Y-72796400D03*
X127469200Y-72796400D03*
%TD*%
D18*
%TO.C,H4*%
X142240000Y-102108000D03*
%TD*%
D19*
%TO.C,C11*%
X118872000Y-90932000D03*
X118872000Y-89972000D03*
%TD*%
D20*
%TO.C,U1*%
X136300000Y-95000000D03*
X134000000Y-95000000D03*
D21*
X134000000Y-101300000D03*
D20*
X131700000Y-95000000D03*
%TD*%
D22*
%TO.C,C3*%
X121653000Y-81788000D03*
X123203000Y-81788000D03*
%TD*%
D23*
%TO.C,R4*%
X112014000Y-82046000D03*
X112014000Y-81026000D03*
%TD*%
D19*
%TO.C,C9*%
X117094000Y-89182000D03*
X117094000Y-88222000D03*
%TD*%
%TO.C,C5*%
X117094000Y-87122000D03*
X117094000Y-86162000D03*
%TD*%
D24*
%TO.C,R2*%
X124333000Y-97409000D03*
X123313000Y-97409000D03*
%TD*%
D25*
%TO.C,C10*%
X121940000Y-83400000D03*
X122900000Y-83400000D03*
%TD*%
%TO.C,C4*%
X122174000Y-95500000D03*
X123134000Y-95500000D03*
%TD*%
D26*
%TO.C,C13*%
X117828000Y-95504000D03*
X116868000Y-95504000D03*
%TD*%
D27*
%TO.C,C7*%
X131064000Y-86388000D03*
X131064000Y-87348000D03*
%TD*%
D26*
%TO.C,C12*%
X117800000Y-94183200D03*
X116840000Y-94183200D03*
%TD*%
D28*
%TO.C,C2*%
X138684000Y-98044000D03*
X138684000Y-96144000D03*
%TD*%
D29*
%TO.C,D1*%
X141500000Y-96862500D03*
X141500000Y-98437500D03*
%TD*%
D30*
%TO.C,U2*%
X120805500Y-86658000D03*
X120805500Y-87158000D03*
X120805500Y-87658000D03*
X120805500Y-88158000D03*
X120805500Y-88658000D03*
X120805500Y-89158000D03*
X120805500Y-89658000D03*
X120805500Y-90158000D03*
X120805500Y-90658000D03*
X120805500Y-91158000D03*
X120805500Y-91658000D03*
X120805500Y-92158000D03*
D31*
X122218000Y-93570500D03*
X122718000Y-93570500D03*
X123218000Y-93570500D03*
X123718000Y-93570500D03*
X124218000Y-93570500D03*
X124718000Y-93570500D03*
X125218000Y-93570500D03*
X125718000Y-93570500D03*
X126218000Y-93570500D03*
X126718000Y-93570500D03*
X127218000Y-93570500D03*
X127718000Y-93570500D03*
D30*
X129130500Y-92158000D03*
X129130500Y-91658000D03*
X129130500Y-91158000D03*
X129130500Y-90658000D03*
X129130500Y-90158000D03*
X129130500Y-89658000D03*
X129130500Y-89158000D03*
X129130500Y-88658000D03*
X129130500Y-88158000D03*
X129130500Y-87658000D03*
X129130500Y-87158000D03*
X129130500Y-86658000D03*
D31*
X127718000Y-85245500D03*
X127218000Y-85245500D03*
X126718000Y-85245500D03*
X126218000Y-85245500D03*
X125718000Y-85245500D03*
X125218000Y-85245500D03*
X124718000Y-85245500D03*
X124218000Y-85245500D03*
X123718000Y-85245500D03*
X123218000Y-85245500D03*
X122718000Y-85245500D03*
X122218000Y-85245500D03*
%TD*%
D32*
%TO.C,R1*%
X141526800Y-94945200D03*
X142546800Y-94945200D03*
%TD*%
D18*
%TO.C,H3*%
X109220000Y-73660000D03*
%TD*%
D33*
%TO.C,C1*%
X133200000Y-92600000D03*
X135100000Y-92600000D03*
%TD*%
D26*
%TO.C,C6*%
X128115000Y-95631000D03*
X127155000Y-95631000D03*
%TD*%
D23*
%TO.C,R5*%
X134366000Y-87884000D03*
X134366000Y-86864000D03*
%TD*%
D34*
%TO.C,SW1*%
X109382800Y-78478800D03*
X109382800Y-85778800D03*
X107172800Y-85778800D03*
D35*
X108272800Y-83628800D03*
D34*
X107172800Y-78478800D03*
D35*
X108272800Y-80628800D03*
D36*
X110032800Y-79878800D03*
X110032800Y-82878800D03*
X110032800Y-84378800D03*
%TD*%
D18*
%TO.C,H2*%
X142240000Y-73660000D03*
%TD*%
%TO.C,H1*%
X109500000Y-102108000D03*
%TD*%
D16*
%TO.C,J1*%
X123869200Y-72796400D03*
D17*
X121869200Y-72796400D03*
X119869200Y-72796400D03*
X117869200Y-72796400D03*
%TD*%
D19*
%TO.C,C8*%
X119126000Y-86431000D03*
X119126000Y-85471000D03*
%TD*%
D29*
%TO.C,FB1*%
X119352000Y-94208500D03*
X119352000Y-95783500D03*
%TD*%
D16*
%TO.C,J2*%
X120460000Y-103378000D03*
D17*
X122460000Y-103378000D03*
X124460000Y-103378000D03*
X126460000Y-103378000D03*
%TD*%
D32*
%TO.C,R3*%
X125499400Y-97409000D03*
X126519400Y-97409000D03*
%TD*%
M02*
